<svg width="1128" height="88" viewBox="0 0 1128 88" fill="none" xmlns="http://www.w3.org/2000/svg">
<rect x="0.5" y="0.5" width="167" height="87" rx="3.5" stroke="#8E8F99"/>
<path fill-rule="evenodd" clip-rule="evenodd" d="M70 23L77.0078 29.6764L64 29.6687V62.0609H98V49.6758L105 56.3448V23H70ZM97.6924 48.8922L77.8226 29.962H97.6924V48.8922ZM91.5231 57.3227H69.3801V35.5373H70.9453V55.8475H91.5231V57.3227ZM73.7959 68.0611L72.9707 66.3643H72.2896L73.4858 68.6104V69.919H74.1035V68.6104L75.2998 66.3643H74.6211L73.7959 68.0611ZM76.8379 66.3643H76.9844L78.3271 69.919H77.6826L77.395 69.0865H76.0189L75.7319 69.919H75.0898L76.4277 66.3643H76.5718H76.8379ZM76.1864 68.6007H77.2271L76.7062 67.0927L76.1864 68.6007ZM80.4821 68.0117C80.4553 67.9776 80.4295 67.9445 80.4048 67.9122C80.3136 67.7917 80.2428 67.6754 80.1924 67.5631C80.1419 67.4491 80.1167 67.3319 80.1167 67.2115C80.1167 67.026 80.1549 66.8665 80.2314 66.733C80.3079 66.5995 80.4162 66.497 80.5562 66.4254C80.6961 66.3521 80.8597 66.3155 81.0469 66.3155C81.2275 66.3155 81.383 66.3521 81.5132 66.4254C81.645 66.497 81.7459 66.5922 81.8159 66.711C81.8875 66.8298 81.9233 66.96 81.9233 67.1016C81.9233 67.2139 81.903 67.3165 81.8623 67.4093C81.8216 67.502 81.7655 67.5867 81.6938 67.6632C81.6222 67.7397 81.5392 67.8121 81.4448 67.8805L81.1979 68.0602L81.9018 68.8909C81.925 68.8453 81.946 68.7973 81.9648 68.7472C82.0251 68.5909 82.0552 68.4176 82.0552 68.2271H82.563C82.563 68.3997 82.5459 68.5632 82.5117 68.7179C82.4792 68.8725 82.4263 69.0157 82.353 69.1475C82.3233 69.2022 82.2897 69.2545 82.2522 69.3044L82.7729 69.919H82.0918L81.8852 69.676C81.7734 69.7609 81.6518 69.8272 81.5205 69.8751C81.348 69.9369 81.1641 69.9679 80.9688 69.9679C80.7327 69.9679 80.5285 69.9247 80.356 69.8385C80.1834 69.7522 80.05 69.6334 79.9556 69.482C79.8628 69.3306 79.8164 69.1573 79.8164 68.962C79.8164 68.8171 79.8465 68.6902 79.9067 68.5811C79.967 68.4705 80.0492 68.3679 80.1533 68.2735C80.2495 68.1862 80.3591 68.099 80.4821 68.0117ZM80.7738 68.3689L80.7002 68.4224C80.6139 68.4924 80.5496 68.56 80.5073 68.6251C80.4666 68.6886 80.4398 68.7472 80.4268 68.8009C80.4137 68.8546 80.4072 68.9018 80.4072 68.9425C80.4072 69.0466 80.4292 69.141 80.4731 69.2257C80.5187 69.3103 80.5846 69.3778 80.6709 69.4283C80.7588 69.4771 80.8654 69.5015 80.9907 69.5015C81.1258 69.5015 81.2568 69.4714 81.3838 69.4112C81.4474 69.3802 81.5078 69.3429 81.5648 69.2992L80.7738 68.3689ZM80.9143 67.7196L81.1323 67.5728C81.2349 67.5045 81.3081 67.4377 81.3521 67.3726C81.396 67.3059 81.418 67.2229 81.418 67.1236C81.418 67.039 81.3854 66.9609 81.3203 66.8892C81.2552 66.8176 81.1632 66.7818 81.0444 66.7818C80.9614 66.7818 80.8914 66.8013 80.8345 66.8404C80.7775 66.8778 80.7344 66.9283 80.7051 66.9918C80.6774 67.0536 80.6636 67.1228 80.6636 67.1993C80.6636 67.2725 80.6823 67.3482 80.7197 67.4263C80.7572 67.5028 80.8084 67.5834 80.8735 67.668C80.8868 67.685 80.9004 67.7021 80.9143 67.7196ZM87.1333 68.7618H86.5229C86.505 68.9164 86.4676 69.0474 86.4106 69.1549C86.3553 69.2607 86.2731 69.3412 86.1641 69.3966C86.0566 69.4519 85.9159 69.4796 85.7417 69.4796C85.5985 69.4796 85.4756 69.4511 85.373 69.3941C85.2705 69.3372 85.1859 69.2566 85.1191 69.1524C85.054 69.0483 85.0052 68.9237 84.9727 68.7789C84.9417 68.6324 84.9263 68.4696 84.9263 68.2906V67.9903C84.9263 67.8015 84.9434 67.6339 84.9775 67.4874C85.0133 67.3393 85.0662 67.2148 85.1362 67.1138C85.2062 67.0129 85.2933 66.9364 85.3975 66.8844C85.5016 66.8323 85.6237 66.8062 85.7637 66.8062C85.9346 66.8062 86.0729 66.8355 86.1787 66.8941C86.2845 66.9511 86.3643 67.0341 86.418 67.1431C86.4733 67.2522 86.5091 67.3832 86.5254 67.5362H87.1357C87.1113 67.2986 87.0446 67.0878 86.9355 66.9039C86.8281 66.72 86.6768 66.5759 86.4814 66.4718C86.2861 66.3676 86.0469 66.3155 85.7637 66.3155C85.5407 66.3155 85.3397 66.3546 85.1606 66.4327C84.9832 66.5108 84.8311 66.6239 84.7041 66.7721C84.5771 66.9185 84.4795 67.0951 84.4111 67.3018C84.3444 67.5085 84.311 67.7397 84.311 67.9952V68.2906C84.311 68.5461 84.3436 68.7773 84.4087 68.984C84.4754 69.1907 84.5715 69.3673 84.6968 69.5138C84.8221 69.6586 84.9727 69.7709 85.1484 69.8507C85.3242 69.9288 85.522 69.9679 85.7417 69.9679C86.0282 69.9679 86.2715 69.9158 86.4717 69.8116C86.6719 69.7074 86.8273 69.565 86.938 69.3844C87.0487 69.2021 87.1138 68.9945 87.1333 68.7618ZM90.5244 68.2393V68.044C90.5244 67.7755 90.4886 67.5354 90.417 67.3238C90.347 67.1106 90.2469 66.9291 90.1167 66.7794C89.9865 66.628 89.8311 66.5133 89.6504 66.4351C89.4697 66.3554 89.2695 66.3155 89.0498 66.3155C88.8317 66.3155 88.6323 66.3554 88.4517 66.4351C88.2726 66.5133 88.1172 66.628 87.9854 66.7794C87.8551 66.9291 87.7542 67.1106 87.6826 67.3238C87.611 67.5354 87.5752 67.7755 87.5752 68.044V68.2393C87.5752 68.5079 87.611 68.7488 87.6826 68.962C87.7559 69.1752 87.8584 69.3567 87.9902 69.5064C88.1221 69.6562 88.2775 69.7709 88.4565 69.8507C88.6372 69.9288 88.8366 69.9679 89.0547 69.9679C89.2744 69.9679 89.4746 69.9288 89.6553 69.8507C89.8359 69.7709 89.9906 69.6562 90.1191 69.5064C90.2493 69.3567 90.3494 69.1752 90.4194 68.962C90.4894 68.7488 90.5244 68.5079 90.5244 68.2393ZM89.9116 68.0391V68.2393C89.9116 68.4379 89.8921 68.6137 89.853 68.7667C89.8156 68.9197 89.7603 69.0491 89.687 69.1549C89.6138 69.259 89.5243 69.338 89.4185 69.3917C89.3127 69.4438 89.1914 69.4698 89.0547 69.4698C88.9196 69.4698 88.7992 69.4438 88.6934 69.3917C88.5876 69.338 88.4964 69.259 88.4199 69.1549C88.3451 69.0491 88.2881 68.9197 88.249 68.7667C88.21 68.6137 88.1904 68.4379 88.1904 68.2393V68.0391C88.1904 67.8406 88.21 67.6656 88.249 67.5142C88.2881 67.3612 88.3442 67.2335 88.4175 67.1309C88.4923 67.0268 88.5827 66.9486 88.6885 66.8966C88.7943 66.8429 88.9147 66.816 89.0498 66.816C89.1849 66.816 89.3062 66.8429 89.4136 66.8966C89.521 66.9486 89.6113 67.0268 89.6846 67.1309C89.7594 67.2335 89.8156 67.3612 89.853 67.5142C89.8921 67.6656 89.9116 67.8406 89.9116 68.0391Z" fill="#8E8F99"/>
<rect x="192.5" y="0.5" width="167" height="87" rx="3.5" stroke="#8E8F99"/>
<path fill-rule="evenodd" clip-rule="evenodd" d="M274.114 21.9345H273.977C273.767 21.9218 273.557 21.9167 273.347 21.9116H273.347H273.327H272.892C272.495 21.9116 272.09 21.9218 271.688 21.9421C271.657 21.9399 271.627 21.9399 271.597 21.9421C267.952 22.1486 264.382 23.0595 261.08 24.6249L260.648 24.8334V46.9746L261.66 46.6313C262.548 46.3261 263.494 46.0515 264.473 45.7972C267.119 45.1178 269.837 44.7567 272.568 44.7216V47.6306C272.206 47.6332 271.855 47.6434 271.503 47.6612H271.419C269.318 47.7765 267.232 48.0967 265.191 48.6173C262.607 49.2643 260.114 50.2357 257.772 51.5086V23.1119C260.205 21.6928 262.825 20.6269 265.556 19.946C267.953 19.3271 270.417 19.0093 272.892 19H273.319C273.83 19.0127 274.329 19.0356 274.797 19.0712C276.03 19.1578 277.253 19.3526 278.452 19.6535V22.5168C277.287 22.2455 276.103 22.067 274.91 21.9828C274.886 21.9808 274.862 21.9787 274.838 21.9767C274.591 21.9556 274.344 21.9345 274.114 21.9345ZM279.153 24.8614C279.788 24.9097 280.445 24.9326 281.111 24.9326C283.713 24.9231 286.303 24.5908 288.824 23.9434C291.407 23.294 293.899 22.3218 296.241 21.0496V48.9402C293.807 50.3585 291.185 51.4243 288.455 52.1061C286.057 52.7227 283.593 53.0395 281.118 53.0496C279.243 53.0647 277.374 52.8443 275.553 52.3935V24.3223C275.983 24.4215 276.426 24.513 276.876 24.5893C277.615 24.7139 278.394 24.8054 279.153 24.8614ZM293.347 25.0775L292.335 25.4183C291.404 25.7311 290.466 26.0108 289.522 26.26C286.775 26.966 283.951 27.3281 281.116 27.3382C280.456 27.3382 279.848 27.3204 279.262 27.2822L278.455 27.2288V47.3178V50.0057L279.148 50.0667C279.79 50.1227 280.453 50.1506 281.121 50.1506C283.354 50.1412 285.578 49.8533 287.741 49.2937C289.522 48.8469 291.255 48.2243 292.914 47.4348L293.347 47.2263V25.0775Z" fill="#8E8F99"/>
<path d="M259.737 61.2124C259.592 61.0615 259.416 60.943 259.222 60.8646C259.028 60.7862 258.82 60.7496 258.611 60.7572C258.389 60.7542 258.168 60.7957 257.961 60.8793C257.772 60.9547 257.6 61.068 257.455 61.2124C257.312 61.3572 257.201 61.5304 257.129 61.721C257.05 61.9207 257.01 62.1341 257.013 62.3491V66.1431C257.004 66.4104 257.055 66.6764 257.162 66.9212C257.251 67.1156 257.381 67.2889 257.541 67.4298C257.693 67.5575 257.871 67.6495 258.062 67.6994C258.247 67.7512 258.438 67.7777 258.629 67.7782C258.84 67.7803 259.05 67.7351 259.241 67.646C259.431 67.563 259.603 67.4438 259.747 67.295C259.888 67.1476 260.001 66.9752 260.079 66.7864C260.16 66.5951 260.201 66.3892 260.2 66.1812V65.7566H259.208V66.0948C259.211 66.2103 259.192 66.3252 259.15 66.433C259.118 66.5137 259.069 66.5866 259.006 66.6466C258.945 66.6962 258.874 66.7334 258.799 66.7559C258.732 66.7782 258.662 66.7902 258.591 66.7915C258.503 66.8018 258.413 66.7885 258.331 66.7527C258.249 66.717 258.179 66.6602 258.126 66.5881C258.032 66.4356 257.986 66.2585 257.994 66.0795V62.5423C257.988 62.3462 258.03 62.1515 258.116 61.9753C258.167 61.8952 258.24 61.8313 258.326 61.7908C258.412 61.7503 258.507 61.7349 258.601 61.7464C258.687 61.7434 258.772 61.7612 258.849 61.7984C258.926 61.8356 258.993 61.8911 259.044 61.96C259.155 62.1057 259.213 62.2852 259.208 62.4686V62.7966H260.19V62.4101C260.192 62.1831 260.151 61.9578 260.069 61.7464C259.995 61.5476 259.883 61.3659 259.737 61.2124Z" fill="#8E8F99"/>
<path d="M265.629 61.1691C265.313 60.9021 264.914 60.7546 264.501 60.7521C264.299 60.7529 264.098 60.7891 263.909 60.8589C263.716 60.9279 263.538 61.0332 263.385 61.1691C263.221 61.3168 263.09 61.498 263.001 61.7006C262.901 61.9323 262.851 62.183 262.856 62.4355V66.0744C262.85 66.3304 262.899 66.5847 263.001 66.8195C263.09 67.0151 263.222 67.1887 263.385 67.328C263.537 67.4688 263.715 67.5777 263.909 67.6485C264.098 67.7183 264.299 67.7544 264.501 67.7553C264.703 67.7549 264.903 67.7187 265.093 67.6485C265.29 67.5767 265.472 67.468 265.629 67.328C265.787 67.1861 265.915 67.013 266.003 66.8195C266.105 66.5847 266.154 66.3304 266.148 66.0744V62.4355C266.152 62.183 266.103 61.9323 266.003 61.7006C265.915 61.5001 265.788 61.3194 265.629 61.1691ZM265.166 66.0744C265.174 66.1714 265.161 66.269 265.127 66.3601C265.093 66.4512 265.039 66.5334 264.969 66.6008C264.838 66.7106 264.673 66.7708 264.502 66.7708C264.331 66.7708 264.166 66.7106 264.035 66.6008C263.965 66.5334 263.911 66.4512 263.877 66.3601C263.843 66.269 263.83 66.1714 263.838 66.0744V62.4355C263.83 62.3385 263.843 62.2409 263.877 62.1498C263.911 62.0587 263.965 61.9764 264.035 61.9091C264.166 61.7993 264.331 61.7391 264.502 61.7391C264.673 61.7391 264.838 61.7993 264.969 61.9091C265.039 61.9764 265.093 62.0587 265.127 62.1498C265.161 62.2409 265.174 62.3385 265.166 62.4355V66.0744Z" fill="#8E8F99"/>
<path d="M273.367 67.6994V60.8107H272.414L271.161 64.4572H271.144L269.881 60.8107H268.938V67.6994H269.922V63.5087H269.94L270.903 66.4712H271.394L272.366 63.5087H272.383V67.6994H273.367Z" fill="#8E8F99"/>
<path d="M278.958 61.2937C278.807 61.1237 278.615 60.9943 278.402 60.9173C278.171 60.8424 277.93 60.8063 277.688 60.8105H276.226V67.6993H277.207V65.0089H277.713C278.02 65.0228 278.324 64.958 278.599 64.8207C278.822 64.6968 279.008 64.515 279.138 64.2943C279.251 64.1111 279.328 63.9071 279.363 63.6942C279.401 63.435 279.419 63.173 279.416 62.911C279.425 62.5802 279.393 62.2495 279.32 61.9269C279.254 61.6885 279.13 61.4706 278.958 61.2937ZM278.452 63.3941C278.448 63.5188 278.417 63.6412 278.361 63.7527C278.305 63.8586 278.216 63.9434 278.108 63.9942C277.963 64.0593 277.804 64.0889 277.645 64.0807H277.197V61.7387H277.703C277.856 61.7312 278.008 61.7609 278.146 61.8251C278.248 61.8834 278.328 61.9724 278.376 62.0794C278.43 62.2004 278.459 62.331 278.462 62.4634C278.462 62.6084 278.462 62.7609 278.462 62.9211C278.462 63.0813 278.472 63.2466 278.462 63.3941H278.452Z" fill="#8E8F99"/>
<path d="M283.608 60.8107H282.803L281.285 67.6994H282.267L282.555 66.2194H283.894L284.182 67.6994H285.163L283.608 60.8107ZM282.702 65.2811L283.185 62.784H283.203L283.684 65.2811H282.702Z" fill="#8E8F99"/>
<path d="M289.95 64.9607H289.932L288.45 60.8107H287.506V67.6994H288.488V63.557H288.508L290.008 67.6994H290.931V60.8107H289.95V64.9607Z" fill="#8E8F99"/>
<path d="M295.948 60.8107L295.158 63.5494H295.138L294.349 60.8107H293.309L294.657 64.7878V67.6994H295.639V64.7878L296.987 60.8107H295.948Z" fill="#8E8F99"/>
<path d="M257 69.6445H257.473V70.9719H257.794V69.6445H258.265V69.3724H257V69.6445Z" fill="#8E8F99"/>
<path d="M260.977 69.3724L260.357 70.9719H260.698L260.83 70.6083H261.467L261.604 70.9719H261.953L261.318 69.3724H260.977ZM260.926 70.3387L261.144 69.7462L261.361 70.3387H260.926Z" fill="#8E8F99"/>
<path d="M264.908 70.3821H265.277V70.5881C265.169 70.6746 265.036 70.722 264.898 70.7229C264.833 70.7265 264.769 70.7145 264.71 70.688C264.651 70.6614 264.599 70.6211 264.559 70.5703C264.474 70.4485 264.432 70.3017 264.44 70.1533C264.44 69.7973 264.594 69.6193 264.9 69.6193C264.981 69.6112 265.062 69.6325 265.128 69.6791C265.194 69.7257 265.242 69.7947 265.262 69.8735L265.578 69.8125C265.51 69.4997 265.285 69.3421 264.9 69.3421C264.695 69.3366 264.495 69.4103 264.341 69.5481C264.261 69.6276 264.198 69.7239 264.159 69.8302C264.119 69.9365 264.103 70.0502 264.111 70.1634C264.102 70.3823 264.175 70.5966 264.316 70.7636C264.394 70.8444 264.489 70.9071 264.594 70.9475C264.699 70.9879 264.811 71.0049 264.923 70.9975C265.173 71.0045 265.417 70.9133 265.601 70.7432V70.1126H264.908V70.3821Z" fill="#8E8F99"/>
<path d="M268.923 69.3724H268.599V70.9719H269.719V70.6998H268.923V69.3724Z" fill="#8E8F99"/>
<path d="M272.317 69.3724H271.994V70.9719H272.317V69.3724Z" fill="#8E8F99"/>
<path d="M275.636 70.4405L274.981 69.3724H274.668V70.9719H274.969V69.9268L275.611 70.9719H275.932V69.3724H275.636V70.4405Z" fill="#8E8F99"/>
<path d="M278.637 70.2675H279.434V69.9954H278.637V69.6445H279.494V69.3724H278.313V70.9719H279.527V70.6998H278.637V70.2675Z" fill="#8E8F99"/>
<path d="M285.912 70.0031H285.282V69.3724H284.961V70.9719H285.282V70.2726H285.912V70.9719H286.234V69.3724H285.912V70.0031Z" fill="#8E8F99"/>
<path d="M288.93 70.2675H289.73V69.9954H288.93V69.6445H289.79V69.3724H288.609V70.9719H289.821V70.6998H288.93V70.2675Z" fill="#8E8F99"/>
<path d="M293.023 70.2676C293.302 70.2244 293.443 70.0769 293.443 69.8226C293.451 69.7546 293.441 69.6856 293.413 69.623C293.386 69.5603 293.342 69.5063 293.286 69.4666C293.141 69.3938 292.98 69.3614 292.818 69.3725H292.14V70.972H292.462V70.3032H292.525C292.593 70.299 292.662 70.3112 292.725 70.3388C292.772 70.3678 292.811 70.4079 292.839 70.4558L293.188 70.9644H293.572L293.377 70.6516C293.291 70.4972 293.17 70.3656 293.023 70.2676ZM292.699 70.0464H292.462V69.6446H292.715C292.825 69.6357 292.936 69.6486 293.041 69.6827C293.064 69.7034 293.083 69.7291 293.095 69.7579C293.107 69.7867 293.113 69.8179 293.111 69.8492C293.11 69.8804 293.101 69.911 293.087 69.9385C293.072 69.966 293.051 69.9899 293.026 70.0082C292.92 70.0406 292.81 70.0535 292.699 70.0464Z" fill="#8E8F99"/>
<path d="M296.11 70.2675H296.906V69.9954H296.11V69.6445H296.97V69.3724H295.786V70.9719H297V70.6998H296.11V70.2675Z" fill="#8E8F99"/>
<rect x="384.5" y="0.5" width="167" height="87" rx="3.5" stroke="#8E8F99"/>
<path d="M452.81 65.2233C452.826 65.2236 452.842 65.2268 452.856 65.2324C452.871 65.2381 452.884 65.2462 452.895 65.2563L453.116 65.4639C452.945 65.6319 452.733 65.7662 452.495 65.8578C452.217 65.9577 451.917 66.0059 451.615 65.9993C451.331 66.0043 451.049 65.9593 450.786 65.8672C450.55 65.7826 450.337 65.6555 450.163 65.4945C449.985 65.3275 449.848 65.1319 449.76 64.919C449.663 64.6817 449.616 64.4319 449.619 64.1807C449.615 63.9279 449.666 63.6766 449.771 63.44C449.867 63.2258 450.013 63.0301 450.199 62.8645C450.387 62.702 450.612 62.5744 450.861 62.4894C451.133 62.3994 451.422 62.3545 451.714 62.3573C451.985 62.3517 452.254 62.3926 452.506 62.4776C452.725 62.5587 452.926 62.6712 453.1 62.8102L452.915 63.0319C452.902 63.0475 452.886 63.0611 452.868 63.072C452.846 63.0848 452.82 63.0907 452.793 63.0886C452.765 63.0869 452.737 63.0787 452.713 63.065L452.614 63.006L452.476 62.9305C452.416 62.9025 452.354 62.8781 452.291 62.8574C452.209 62.8324 452.125 62.8126 452.04 62.7984C451.931 62.7814 451.821 62.7735 451.711 62.7748C451.501 62.7726 451.293 62.8063 451.098 62.8739C450.917 62.9365 450.753 63.0314 450.618 63.1522C450.48 63.2807 450.374 63.4315 450.306 63.5957C450.228 63.7835 450.19 63.9815 450.193 64.1807C450.19 64.3829 450.228 64.5841 450.306 64.7751C450.374 64.9378 450.478 65.0877 450.613 65.2162C450.739 65.336 450.896 65.4295 451.071 65.4898C451.251 65.5536 451.444 65.5857 451.639 65.5842C451.752 65.5856 451.865 65.5793 451.976 65.5653C452.158 65.5463 452.333 65.4923 452.487 65.4072C452.564 65.3637 452.637 65.3148 452.705 65.261C452.733 65.2379 452.771 65.2244 452.81 65.2233Z" fill="#8E8F99"/>
<path d="M459.186 64.1803C459.19 64.4305 459.139 64.6792 459.037 64.9138C458.947 65.1266 458.805 65.3207 458.621 65.4834C458.437 65.646 458.215 65.7734 457.969 65.8573C457.428 66.0334 456.831 66.0334 456.291 65.8573C456.046 65.7721 455.825 65.6444 455.642 65.4822C455.458 65.3167 455.315 65.1209 455.222 64.9067C455.023 64.4317 455.023 63.9124 455.222 63.4373C455.316 63.2231 455.459 63.0267 455.642 62.8595C455.827 62.7024 456.048 62.5796 456.291 62.4986C456.83 62.3193 457.429 62.3193 457.969 62.4986C458.214 62.5837 458.436 62.7114 458.62 62.8736C458.802 63.0376 458.944 63.2308 459.037 63.442C459.139 63.6782 459.19 63.9285 459.186 64.1803ZM458.606 64.1803C458.611 63.9801 458.575 63.7807 458.502 63.5906C458.44 63.4278 458.339 63.2777 458.206 63.1496C458.077 63.0284 457.917 62.9333 457.74 62.8713C457.347 62.7423 456.912 62.7423 456.52 62.8713C456.342 62.9333 456.183 63.0284 456.053 63.1496C455.918 63.2769 455.817 63.4272 455.755 63.5906C455.615 63.9746 455.615 64.386 455.755 64.7699C455.817 64.9331 455.919 65.0833 456.053 65.211C456.183 65.3315 456.342 65.4257 456.52 65.487C456.913 65.6126 457.346 65.6126 457.74 65.487C457.917 65.4257 458.077 65.3315 458.206 65.211C458.339 65.0826 458.439 64.9325 458.502 64.7699C458.576 64.5799 458.611 64.3805 458.606 64.1803Z" fill="#8E8F99"/>
<path d="M463.536 64.7987L463.594 64.9308C463.617 64.8836 463.636 64.8412 463.658 64.7987C463.679 64.7544 463.703 64.7111 463.73 64.669L465.14 62.4781C465.168 62.4404 465.193 62.4168 465.22 62.4097C465.258 62.4 465.297 62.396 465.336 62.3979H465.753V65.9614H465.259V63.3413C465.259 63.3083 465.259 63.2705 465.259 63.2304C465.256 63.1896 465.256 63.1486 465.259 63.1078L463.84 65.3293C463.822 65.3626 463.793 65.3908 463.757 65.4104C463.721 65.4301 463.679 65.4404 463.636 65.4402H463.556C463.513 65.4407 463.471 65.4305 463.434 65.4108C463.398 65.3911 463.369 65.3628 463.352 65.3293L461.891 63.0937C461.891 63.1361 461.891 63.1786 461.891 63.221C461.891 63.2635 461.891 63.3012 461.891 63.3342V65.9543H461.414V62.3979H461.831C461.87 62.396 461.909 62.4 461.947 62.4097C461.981 62.4242 462.008 62.4484 462.024 62.4781L463.465 64.6714C463.493 64.7119 463.517 64.7545 463.536 64.7987Z" fill="#8E8F99"/>
<path d="M468.845 64.6217V65.9564H468.293V62.3978H469.524C469.756 62.394 469.988 62.4202 470.211 62.4756C470.39 62.5189 470.555 62.5945 470.697 62.6973C470.819 62.7937 470.914 62.9132 470.973 63.0463C471.038 63.1915 471.07 63.346 471.067 63.5015C471.069 63.6576 471.034 63.8124 470.965 63.9566C470.898 64.0932 470.796 64.215 470.667 64.3127C470.525 64.4198 470.358 64.5002 470.178 64.5486C469.963 64.6072 469.738 64.6351 469.513 64.6311L468.845 64.6217ZM468.845 64.2396H469.513C469.658 64.2412 469.802 64.2229 469.941 64.1854C470.055 64.1526 470.16 64.1004 470.25 64.0321C470.333 63.9668 470.397 63.8862 470.437 63.7963C470.483 63.7012 470.505 63.5994 470.504 63.4968C470.51 63.3978 470.491 63.2989 470.448 63.2069C470.405 63.1148 470.339 63.0319 470.255 62.9638C470.044 62.8231 469.779 62.755 469.513 62.7728H468.845V64.2396Z" fill="#8E8F99"/>
<path d="M476.264 65.9613H475.828C475.785 65.9627 475.742 65.951 475.707 65.9282C475.676 65.906 475.651 65.8777 475.635 65.8457L475.26 64.9848H473.374L472.985 65.8457C472.971 65.8772 472.947 65.9048 472.916 65.9259C472.881 65.95 472.837 65.9626 472.792 65.9613H472.356L474.012 62.3975H474.586L476.264 65.9613ZM473.532 64.6381H475.089L474.432 63.1876C474.381 63.0785 474.34 62.9666 474.307 62.8527L474.244 63.039C474.225 63.0956 474.203 63.1475 474.183 63.1899L473.532 64.6381Z" fill="#8E8F99"/>
<path d="M478.65 62.414C478.683 62.4295 478.711 62.4513 478.732 62.4777L481.148 65.1641C481.148 65.1216 481.148 65.0792 481.148 65.0391C481.148 64.999 481.148 64.9589 481.148 64.9212V62.3975H481.642V65.9613H481.366C481.327 65.9623 481.288 65.955 481.253 65.9401C481.218 65.9231 481.188 65.9006 481.164 65.874L478.752 63.19C478.754 63.2309 478.754 63.2718 478.752 63.3126C478.752 63.3527 478.752 63.3881 478.752 63.4211V65.9613H478.258V62.3975H478.55C478.584 62.3967 478.618 62.4024 478.65 62.414Z" fill="#8E8F99"/>
<path d="M485.71 64.5438V65.9589H485.158V64.5438L483.632 62.3975H484.126C484.169 62.3954 484.211 62.4062 484.245 62.4282C484.275 62.4511 484.3 62.4782 484.319 62.5084L485.274 63.8928C485.313 63.9518 485.346 64.006 485.374 64.0579C485.401 64.1098 485.423 64.1593 485.443 64.2089L485.514 64.0556C485.541 63.9995 485.573 63.9451 485.608 63.8928L486.55 62.4989C486.569 62.4711 486.593 62.4457 486.621 62.4235C486.654 62.399 486.697 62.3864 486.74 62.3881H487.24L485.71 64.5438Z" fill="#8E8F99"/>
<path d="M463.263 56.417C463.503 56.4429 463.746 56.4642 463.992 56.483C467.716 55.0595 470.867 52.7295 473.051 49.7844C475.234 46.8393 476.353 43.4097 476.267 39.9243L472.163 36.4172C472.997 40.1281 472.607 43.9642 471.035 47.4963C469.463 51.0284 466.772 54.1171 463.263 56.417Z" fill="#8E8F99"/>
<path d="M461.797 56.2539L461.908 56.2728C465.658 53.9811 468.517 50.7809 470.115 47.0861C471.713 43.3912 471.978 39.3717 470.873 35.5472L465.027 30.5521C467.392 34.658 468.344 39.253 467.772 43.8029C467.2 48.3528 465.128 52.6705 461.797 56.2539Z" fill="#8E8F99"/>
<path d="M481.625 44.0424C480.632 47.872 478.219 51.3258 474.746 53.8911C473.732 54.6444 472.638 55.3155 471.478 55.8957C474.306 55.1855 476.906 53.9298 479.076 52.2255C481.246 50.5213 482.93 48.4139 483.996 46.0659L481.625 44.0424Z" fill="#8E8F99"/>
<path d="M480.695 43.4784L477.319 40.594C477.254 43.8825 476.16 47.0963 474.15 49.9012C472.14 52.7062 469.287 55 465.888 56.5442H465.905C466.662 56.5439 467.419 56.5053 468.171 56.4286C471.347 55.3209 474.154 53.5586 476.339 51.2989C478.524 49.0392 480.021 46.3525 480.695 43.4784Z" fill="#8E8F99"/>
<path d="M462.286 28.4457L458.259 25C454.658 26.1887 451.562 28.2784 449.375 30.9955C447.187 33.7127 446.011 36.9308 446 40.2285V40.2285C446.013 43.8725 447.449 47.4085 450.079 50.2769C452.71 53.1454 456.384 55.1824 460.522 56.0656C464.216 52.2205 466.379 47.4693 466.696 42.5023C467.013 37.5353 465.468 32.6113 462.286 28.4457Z" fill="#8E8F99"/>
<path d="M490 42.9478C489.985 38.6245 487.969 34.4818 484.391 31.4247C480.813 28.3676 475.964 26.6447 470.904 26.6322C468.566 26.6301 466.247 26.9988 464.067 27.7194L488.725 48.7873C489.569 46.925 490.001 44.945 490 42.9478Z" fill="#8E8F99"/>
<rect x="576.5" y="0.5" width="167" height="87" rx="3.5" stroke="#8E8F99"/>
<path d="M632.078 37.5179H632.075C629.69 37.5179 627.756 39.2616 627.756 41.4124V41.415C627.756 43.5658 629.69 45.3094 632.075 45.3094H632.078C634.464 45.3094 636.398 43.5658 636.398 41.415V41.4124C636.398 39.2616 634.464 37.5179 632.078 37.5179Z" fill="#8E8F99"/>
<path d="M663.961 36.273C663.955 33.2855 662.636 30.4221 660.293 28.3094C657.95 26.1967 654.775 25.0068 651.461 25V25C648.147 25.0054 644.97 26.1948 642.626 28.3076C640.282 30.4205 638.962 33.2846 638.955 36.273V52.7472C638.955 52.7472 663.959 50.2364 663.961 36.2755V36.273Z" fill="#8E8F99"/>
<path d="M619 58.1543C619.006 60.233 619.924 62.2251 621.554 63.6952C623.184 65.1653 625.393 65.9939 627.699 66C630.004 65.9939 632.213 65.1657 633.843 63.6961C635.473 62.2265 636.391 60.2351 636.398 58.1569V46.6938C636.398 46.6938 619 48.4422 619 58.1543ZM627.699 60.2082C627.248 60.2082 626.808 60.0877 626.433 59.862C626.059 59.6364 625.767 59.3156 625.594 58.9403C625.422 58.565 625.377 58.152 625.465 57.7536C625.553 57.3552 625.77 56.9893 626.088 56.702C626.407 56.4148 626.813 56.2192 627.255 56.1399C627.696 56.0607 628.154 56.1014 628.571 56.2568C628.987 56.4123 629.343 56.6755 629.593 57.0133C629.843 57.351 629.977 57.7481 629.977 58.1543C629.978 58.4247 629.92 58.6926 629.806 58.9427C629.692 59.1927 629.524 59.4201 629.313 59.6116C629.101 59.8031 628.85 59.9551 628.573 60.0588C628.296 60.1625 627.999 60.2159 627.699 60.2159V60.2082Z" fill="#8E8F99"/>
<path d="M643.609 56.515V60.7806H642.73V56.515H643.609ZM645.308 58.3373V59.0228H643.369V58.3373H645.308ZM645.513 56.515V57.2035H643.369V56.515H645.513ZM649.527 58.5482V58.7504C649.527 59.0746 649.483 59.3656 649.395 59.6234C649.307 59.8812 649.183 60.101 649.023 60.2826C648.863 60.4623 648.671 60.6 648.449 60.6957C648.228 60.7914 647.983 60.8392 647.713 60.8392C647.446 60.8392 647.201 60.7914 646.978 60.6957C646.757 60.6 646.566 60.4623 646.404 60.2826C646.242 60.101 646.116 59.8812 646.026 59.6234C645.938 59.3656 645.894 59.0746 645.894 58.7504V58.5482C645.894 58.222 645.938 57.931 646.026 57.6752C646.114 57.4174 646.238 57.1976 646.398 57.016C646.56 56.8344 646.751 56.6957 646.972 56.6C647.195 56.5043 647.44 56.4564 647.708 56.4564C647.977 56.4564 648.222 56.5043 648.443 56.6C648.666 56.6957 648.857 56.8344 649.017 57.016C649.179 57.1976 649.304 57.4174 649.392 57.6752C649.482 57.931 649.527 58.222 649.527 58.5482ZM648.639 58.7504V58.5424C648.639 58.3158 648.619 58.1166 648.578 57.9447C648.537 57.7728 648.476 57.6283 648.396 57.5111C648.316 57.3939 648.218 57.306 648.103 57.2474C647.988 57.1869 647.856 57.1566 647.708 57.1566C647.559 57.1566 647.427 57.1869 647.312 57.2474C647.199 57.306 647.102 57.3939 647.022 57.5111C646.944 57.6283 646.884 57.7728 646.843 57.9447C646.802 58.1166 646.782 58.3158 646.782 58.5424V58.7504C646.782 58.975 646.802 59.1742 646.843 59.348C646.884 59.5199 646.945 59.6654 647.025 59.7845C647.105 59.9017 647.203 59.9906 647.318 60.0511C647.433 60.1117 647.565 60.142 647.713 60.142C647.862 60.142 647.994 60.1117 648.109 60.0511C648.224 59.9906 648.321 59.9017 648.399 59.7845C648.477 59.6654 648.537 59.5199 648.578 59.348C648.619 59.1742 648.639 58.975 648.639 58.7504ZM652.38 59.6644C652.38 59.5883 652.369 59.5199 652.345 59.4594C652.324 59.3969 652.283 59.3402 652.222 59.2894C652.162 59.2367 652.077 59.1849 651.967 59.1342C651.858 59.0834 651.716 59.0306 651.542 58.976C651.349 58.9135 651.166 58.8431 650.992 58.765C650.82 58.6869 650.667 58.5961 650.535 58.4926C650.404 58.3871 650.3 58.265 650.224 58.1263C650.15 57.9877 650.113 57.8265 650.113 57.6429C650.113 57.4652 650.152 57.3041 650.23 57.1595C650.308 57.0131 650.417 56.8881 650.558 56.7845C650.699 56.6791 650.865 56.598 651.056 56.5414C651.25 56.4847 651.461 56.4564 651.692 56.4564C652.006 56.4564 652.281 56.5131 652.515 56.6263C652.75 56.7396 652.931 56.8949 653.06 57.0922C653.191 57.2894 653.256 57.515 653.256 57.7689H652.383C652.383 57.6439 652.357 57.5345 652.304 57.4408C652.253 57.3451 652.175 57.2699 652.07 57.2152C651.966 57.1605 651.835 57.1332 651.677 57.1332C651.525 57.1332 651.398 57.1566 651.296 57.2035C651.195 57.2484 651.119 57.3099 651.068 57.3881C651.017 57.4642 650.992 57.5502 650.992 57.6459C650.992 57.7181 651.009 57.7836 651.044 57.8422C651.082 57.9008 651.136 57.9554 651.208 58.0062C651.281 58.057 651.37 58.1049 651.475 58.1498C651.581 58.1947 651.703 58.2386 651.841 58.2816C652.074 58.3519 652.278 58.431 652.454 58.5189C652.631 58.6068 652.78 58.7054 652.899 58.8148C653.018 58.9242 653.108 59.0482 653.168 59.1869C653.229 59.3256 653.259 59.4828 653.259 59.6586C653.259 59.8441 653.223 60.0101 653.151 60.1566C653.079 60.3031 652.974 60.4271 652.837 60.5287C652.701 60.6302 652.538 60.7074 652.348 60.7601C652.159 60.8129 651.947 60.8392 651.712 60.8392C651.501 60.8392 651.293 60.8119 651.088 60.7572C650.883 60.7006 650.697 60.6156 650.529 60.5023C650.363 60.389 650.23 60.2445 650.13 60.0687C650.031 59.8929 649.981 59.6849 649.981 59.4447H650.863C650.863 59.5775 650.883 59.6898 650.924 59.7816C650.965 59.8734 651.023 59.9476 651.097 60.0043C651.173 60.0609 651.263 60.1019 651.367 60.1273C651.472 60.1527 651.587 60.1654 651.712 60.1654C651.865 60.1654 651.99 60.1439 652.087 60.101C652.187 60.058 652.26 59.9984 652.307 59.9222C652.356 59.8461 652.38 59.7601 652.38 59.6644ZM655.764 56.515V60.7806H654.888V56.515H655.764ZM657.077 56.515V57.2035H653.596V56.515H657.077ZM660.44 60.0951V60.7806H658.169V60.0951H660.44ZM658.457 56.515V60.7806H657.578V56.515H658.457ZM660.144 58.2523V58.9203H658.169V58.2523H660.144ZM660.437 56.515V57.2035H658.169V56.515H660.437ZM660.953 56.515H662.543C662.87 56.515 663.15 56.5638 663.384 56.6615C663.621 56.7592 663.802 56.9037 663.929 57.0951C664.056 57.2865 664.12 57.5219 664.12 57.8011C664.12 58.0297 664.081 58.226 664.002 58.39C663.926 58.5521 663.818 58.6879 663.677 58.7972C663.539 58.9047 663.375 58.9906 663.188 59.0551L662.91 59.2015H661.527L661.521 58.516H662.549C662.704 58.516 662.832 58.4886 662.933 58.434C663.035 58.3793 663.111 58.3031 663.162 58.2054C663.214 58.1078 663.241 57.9945 663.241 57.8656C663.241 57.7289 663.215 57.6107 663.165 57.5111C663.114 57.4115 663.037 57.3353 662.933 57.2826C662.83 57.2299 662.7 57.2035 662.543 57.2035H661.832V60.7806H660.953V56.515ZM663.337 60.7806L662.365 58.8793L663.293 58.8734L664.278 60.7396V60.7806H663.337ZM667.952 59.2601H666.865V58.5746H667.952C668.12 58.5746 668.256 58.5472 668.362 58.4926C668.467 58.4359 668.544 58.3578 668.593 58.2582C668.642 58.1586 668.667 58.0463 668.667 57.9213C668.667 57.7943 668.642 57.6761 668.593 57.5668C668.544 57.4574 668.467 57.3695 668.362 57.3031C668.256 57.2367 668.12 57.2035 667.952 57.2035H667.169V60.7806H666.291V56.515H667.952C668.286 56.515 668.572 56.5756 668.81 56.6967C669.05 56.8158 669.234 56.9808 669.361 57.1918C669.488 57.4027 669.551 57.6439 669.551 57.9154C669.551 58.1908 669.488 58.4291 669.361 58.6302C669.234 58.8314 669.05 58.9867 668.81 59.0961C668.572 59.2054 668.286 59.2601 667.952 59.2601ZM673.02 60.0951V60.7806H670.75V60.0951H673.02ZM671.037 56.515V60.7806H670.158V56.515H671.037ZM672.724 58.2523V58.9203H670.75V58.2523H672.724ZM673.017 56.515V57.2035H670.75V56.515H673.017ZM675.499 56.515V60.7806H674.623V56.515H675.499ZM676.811 56.515V57.2035H673.331V56.515H676.811ZM680.174 60.0951V60.7806H677.904V60.0951H680.174ZM678.191 56.515V60.7806H677.312V56.515H678.191ZM679.878 58.2523V58.9203H677.904V58.2523H679.878ZM680.171 56.515V57.2035H677.904V56.515H680.171ZM680.687 56.515H682.278C682.604 56.515 682.884 56.5638 683.119 56.6615C683.355 56.7592 683.537 56.9037 683.664 57.0951C683.791 57.2865 683.854 57.5219 683.854 57.8011C683.854 58.0297 683.815 58.226 683.737 58.39C683.661 58.5521 683.552 58.6879 683.412 58.7972C683.273 58.9047 683.11 58.9906 682.922 59.0551L682.644 59.2015H681.261L681.255 58.516H682.284C682.438 58.516 682.566 58.4886 682.667 58.434C682.769 58.3793 682.845 58.3031 682.896 58.2054C682.949 58.1078 682.975 57.9945 682.975 57.8656C682.975 57.7289 682.95 57.6107 682.899 57.5111C682.848 57.4115 682.771 57.3353 682.667 57.2826C682.564 57.2299 682.434 57.2035 682.278 57.2035H681.566V60.7806H680.687V56.515ZM683.072 60.7806L682.099 58.8793L683.028 58.8734L684.012 60.7396V60.7806H683.072ZM686.751 59.6644C686.751 59.5883 686.74 59.5199 686.716 59.4594C686.695 59.3969 686.654 59.3402 686.593 59.2894C686.533 59.2367 686.448 59.1849 686.338 59.1342C686.229 59.0834 686.087 59.0306 685.914 58.976C685.72 58.9135 685.537 58.8431 685.363 58.765C685.191 58.6869 685.039 58.5961 684.906 58.4926C684.775 58.3871 684.671 58.265 684.595 58.1263C684.521 57.9877 684.484 57.8265 684.484 57.6429C684.484 57.4652 684.523 57.3041 684.601 57.1595C684.679 57.0131 684.789 56.8881 684.929 56.7845C685.07 56.6791 685.236 56.598 685.427 56.5414C685.621 56.4847 685.833 56.4564 686.063 56.4564C686.377 56.4564 686.652 56.5131 686.886 56.6263C687.121 56.7396 687.302 56.8949 687.431 57.0922C687.562 57.2894 687.627 57.515 687.627 57.7689H686.754C686.754 57.6439 686.728 57.5345 686.675 57.4408C686.625 57.3451 686.546 57.2699 686.441 57.2152C686.337 57.1605 686.207 57.1332 686.048 57.1332C685.896 57.1332 685.769 57.1566 685.667 57.2035C685.566 57.2484 685.49 57.3099 685.439 57.3881C685.388 57.4642 685.363 57.5502 685.363 57.6459C685.363 57.7181 685.38 57.7836 685.416 57.8422C685.453 57.9008 685.507 57.9554 685.58 58.0062C685.652 58.057 685.741 58.1049 685.846 58.1498C685.952 58.1947 686.074 58.2386 686.212 58.2816C686.445 58.3519 686.649 58.431 686.825 58.5189C687.002 58.6068 687.151 58.7054 687.27 58.8148C687.389 58.9242 687.479 59.0482 687.54 59.1869C687.6 59.3256 687.63 59.4828 687.63 59.6586C687.63 59.8441 687.594 60.0101 687.522 60.1566C687.45 60.3031 687.345 60.4271 687.208 60.5287C687.072 60.6302 686.909 60.7074 686.719 60.7601C686.53 60.8129 686.318 60.8392 686.083 60.8392C685.873 60.8392 685.665 60.8119 685.459 60.7572C685.254 60.7006 685.068 60.6156 684.9 60.5023C684.734 60.389 684.601 60.2445 684.501 60.0687C684.402 59.8929 684.352 59.6849 684.352 59.4447H685.234C685.234 59.5775 685.254 59.6898 685.295 59.7816C685.336 59.8734 685.394 59.9476 685.468 60.0043C685.544 60.0609 685.634 60.1019 685.738 60.1273C685.843 60.1527 685.958 60.1654 686.083 60.1654C686.236 60.1654 686.361 60.1439 686.458 60.101C686.558 60.058 686.631 59.9984 686.678 59.9222C686.727 59.8461 686.751 59.7601 686.751 59.6644Z" fill="#8E8F99"/>
<rect x="768.5" y="0.5" width="167" height="87" rx="3.5" stroke="#8E8F99"/>
<path d="M826.792 60.373C827.037 60.6465 827.168 60.9891 827.161 61.3407C827.174 61.57 827.129 61.7989 827.03 62.0105C826.931 62.2221 826.78 62.4109 826.589 62.563C826.112 62.8872 825.521 63.0457 824.925 63.0093H822V56.8769H824.865C825.431 56.8431 825.992 56.9871 826.452 57.2844C826.637 57.4238 826.784 57.6 826.88 57.7991C826.977 57.9982 827.021 58.2148 827.008 58.4317C827.025 58.77 826.907 59.1026 826.675 59.3694C826.453 59.6131 826.146 59.782 825.804 59.8488C826.192 59.9125 826.542 60.0983 826.792 60.373ZM823.361 59.4473H824.586C824.864 59.4659 825.14 59.3935 825.364 59.2436C825.456 59.1686 825.528 59.0755 825.573 58.9716C825.619 58.8677 825.637 58.7558 825.627 58.6445C825.636 58.5335 825.617 58.4222 825.572 58.3186C825.527 58.215 825.457 58.1217 825.368 58.0453C825.137 57.8911 824.852 57.8177 824.566 57.8386H823.361V59.4473ZM825.484 61.799C825.582 61.7222 825.66 61.6261 825.71 61.518C825.76 61.4099 825.782 61.2928 825.774 61.1759C825.781 61.0576 825.758 60.9394 825.707 60.8303C825.656 60.7212 825.577 60.6242 825.477 60.5468C825.238 60.3869 824.943 60.3084 824.646 60.3251H823.361V62.0117H824.662C824.955 62.0269 825.245 61.9519 825.484 61.799Z" fill="#8E8F99"/>
<path d="M832.649 63.0093L831.055 60.6127H830.456V63.0093H829.085V56.8769H831.68C832.335 56.8358 832.981 57.0224 833.487 57.3982C833.85 57.731 834.069 58.1696 834.104 58.6348C834.14 59.1001 833.989 59.5614 833.68 59.9357C833.36 60.2659 832.923 60.4861 832.442 60.5588L834.139 63.0093H832.649ZM830.456 59.7769H831.577C832.356 59.7769 832.745 59.4673 832.745 58.8482C832.753 58.7217 832.732 58.5952 832.683 58.4766C832.633 58.358 832.557 58.2499 832.459 58.1591C832.213 57.9749 831.896 57.8855 831.577 57.9105H830.442L830.456 59.7769Z" fill="#8E8F99"/>
<path d="M840.143 61.7752H837.411L836.928 63.0094H835.49L838 56.9459H839.554L842.053 63.0094H840.615L840.143 61.7752ZM839.777 60.8465L838.778 58.2581L837.78 60.8465H839.777Z" fill="#8E8F99"/>
<path d="M849.523 63.0094H848.162L845.111 58.8392V63.0094H843.753V56.877H845.111L848.162 61.0711V56.877H849.523V63.0094Z" fill="#8E8F99"/>
<path d="M857.29 61.5415C857.009 62.0045 856.58 62.3811 856.059 62.6229C855.467 62.8923 854.809 63.0251 854.146 63.0094H851.723V56.877H854.146C854.808 56.8614 855.465 56.991 856.059 57.2545C856.58 57.4908 857.009 57.8637 857.29 58.324C857.57 58.8227 857.716 59.3738 857.716 59.9327C857.716 60.4916 857.57 61.0427 857.29 61.5415ZM855.733 61.3947C856.121 60.9873 856.335 60.4681 856.335 59.9312C856.335 59.3943 856.121 58.8752 855.733 58.4678C855.263 58.0988 854.651 57.9114 854.029 57.9465H853.084V61.9159H854.029C854.651 61.951 855.263 61.7637 855.733 61.3947Z" fill="#8E8F99"/>
<path d="M840.995 22.7667C840.995 22.7667 858.561 28.7374 858.189 37.3773V51.9908C858.189 51.9908 840.635 46.0172 841.001 37.3773L840.995 22.7667Z" fill="#8E8F99"/>
<path d="M873.839 48.5694C877.157 46.5139 880.994 45.2408 885 44.8666V40.292C880.384 41.8935 876.469 44.7975 873.839 48.5694Z" fill="#8E8F99"/>
<path d="M871.846 49.9478C874.561 45.0253 879.269 41.2268 885 39.3336V26.1521C885 26.1521 859.982 34.6572 860.511 46.9609V67.7668C860.511 67.7668 861.626 67.3863 863.38 66.6733C863.38 66.0083 863.38 65.3372 863.46 64.6631C863.978 58.9511 866.994 53.6581 871.846 49.9478Z" fill="#8E8F99"/>
<path d="M869.466 57.6769C869.598 56.234 869.891 54.8067 870.342 53.4169C867.32 56.6211 865.491 60.5971 865.11 64.7859C865.074 65.1814 865.054 65.5768 865.044 65.9843C866.465 65.3701 868.119 64.6032 869.856 63.7015C869.412 61.7197 869.281 59.6916 869.466 57.6769Z" fill="#8E8F99"/>
<path d="M870.461 57.7519C870.295 59.5746 870.399 61.4092 870.771 63.2072C877.606 59.5254 885.286 53.8363 884.99 46.961V46.3618C880.107 46.8537 875.538 48.7756 871.985 51.8321C871.154 53.7263 870.64 55.7214 870.461 57.7519Z" fill="#8E8F99"/>
<rect x="960.5" y="0.5" width="167" height="87" rx="3.5" stroke="#8E8F99"/>
<path d="M1045.53 43.4433C1045.09 42.8524 1044.87 42.1542 1044.92 41.4513V38.5632C1044.92 37.6779 1045.12 37.0051 1045.53 36.5448C1045.93 36.0845 1046.62 35.8554 1047.6 35.8573C1048.52 35.8573 1049.17 36.0532 1049.55 36.4449C1049.97 36.9447 1050.18 37.556 1050.13 38.1725V38.8512H1048.49V38.1637C1048.49 37.9386 1048.48 37.7136 1048.44 37.4909C1048.42 37.3386 1048.33 37.1977 1048.21 37.0913C1048.04 36.9766 1047.82 36.921 1047.61 36.9356C1047.38 36.9211 1047.16 36.9797 1046.98 37.1001C1046.84 37.218 1046.74 37.3725 1046.71 37.5408C1046.66 37.7765 1046.64 38.0155 1046.65 38.2547V41.7598C1046.62 42.0979 1046.69 42.4363 1046.86 42.744C1046.94 42.8482 1047.05 42.9307 1047.19 42.9826C1047.32 43.0344 1047.47 43.0536 1047.61 43.0378C1047.82 43.0528 1048.03 42.9958 1048.19 42.8792C1048.33 42.7644 1048.41 42.6147 1048.44 42.4532C1048.48 42.2206 1048.49 41.9858 1048.49 41.751V41.04H1050.13V41.6893C1050.18 42.3319 1049.98 42.9699 1049.56 43.505C1049.19 43.9339 1048.54 44.1484 1047.6 44.1484C1046.65 44.1484 1045.93 43.9193 1045.53 43.4433Z" fill="#8E8F99"/>
<path d="M1052.38 43.4727C1051.96 43.0232 1051.75 42.368 1051.75 41.5013V38.4633C1051.75 37.6054 1051.96 36.9561 1052.38 36.5154C1052.79 36.0747 1053.49 35.8554 1054.46 35.8573C1055.43 35.8573 1056.12 36.0767 1056.53 36.5154C1056.95 36.9561 1057.16 37.6054 1057.16 38.4633V41.5013C1057.16 42.3592 1056.95 43.0173 1056.53 43.4697C1056.1 43.9222 1055.42 44.1484 1054.46 44.1484C1053.5 44.1484 1052.8 43.9193 1052.38 43.4727ZM1055.23 42.744C1055.37 42.4625 1055.44 42.154 1055.42 41.845V38.1255C1055.44 37.8224 1055.38 37.5199 1055.23 37.2441C1055.15 37.1377 1055.03 37.0538 1054.89 37.0019C1054.76 36.9499 1054.61 36.932 1054.46 36.9503C1054.31 36.9325 1054.16 36.9506 1054.03 37.0025C1053.89 37.0544 1053.77 37.138 1053.69 37.2441C1053.54 37.5191 1053.47 37.8221 1053.49 38.1255V41.8626C1053.47 42.1718 1053.54 42.4805 1053.69 42.7617C1053.78 42.8564 1053.9 42.9324 1054.03 42.9845C1054.17 43.0365 1054.31 43.0634 1054.46 43.0634C1054.6 43.0634 1054.75 43.0365 1054.88 42.9845C1055.01 42.9324 1055.13 42.8564 1055.23 42.7617V42.744Z" fill="#8E8F99"/>
<path d="M1059.14 35.946H1060.91L1062.24 41.5512L1063.6 35.946H1065.32L1065.5 44.0365H1064.22L1064.09 38.4137L1062.77 44.0365H1061.75L1060.39 38.3931L1060.26 44.0365H1058.98L1059.14 35.946Z" fill="#8E8F99"/>
<path d="M1067.48 35.946H1070.24C1071.83 35.946 1072.62 36.7118 1072.62 38.2433C1072.62 39.7102 1071.79 40.4427 1070.11 40.4407H1069.18V44.0365H1067.47L1067.48 35.946ZM1069.84 39.4037C1070.01 39.4221 1070.18 39.4088 1070.34 39.3647C1070.5 39.3206 1070.65 39.2467 1070.78 39.1481C1070.97 38.8749 1071.06 38.554 1071.02 38.2345C1071.03 37.9877 1071 37.7409 1070.94 37.5001C1070.91 37.4196 1070.87 37.3442 1070.81 37.2781C1070.75 37.212 1070.68 37.1567 1070.6 37.1152C1070.36 37.0174 1070.1 36.973 1069.84 36.986H1069.18V39.4037H1069.84Z" fill="#8E8F99"/>
<path d="M1075.08 35.946H1076.91L1078.78 44.0365H1077.2L1076.83 42.171H1075.19L1074.81 44.0365H1073.2L1075.08 35.946ZM1076.64 41.2339L1076 37.8379L1075.37 41.2339H1076.64Z" fill="#8E8F99"/>
<path d="M1080.3 35.946H1081.49L1083.77 40.5612V35.946H1085.18V44.0365H1084.05L1081.76 39.2186V44.0365H1080.29L1080.3 35.946Z" fill="#8E8F99"/>
<path d="M1088.49 40.9516L1086.6 35.9573H1088.19L1089.35 39.1654L1090.44 35.9573H1092L1090.13 40.9516V44.0363H1088.49V40.9516Z" fill="#8E8F99"/>
<path d="M1048.16 47.5736V47.9967H1046.77V51.2842H1046.19V47.9967H1044.79V47.5736H1048.16Z" fill="#8E8F99"/>
<path d="M1052.51 51.2844H1052.06C1052.02 51.2869 1051.97 51.2743 1051.94 51.2492C1051.9 51.2277 1051.88 51.1981 1051.86 51.164L1051.46 50.2827H1049.53L1049.13 51.164C1049.12 51.2009 1049.1 51.235 1049.07 51.2639C1049.03 51.2885 1048.99 51.301 1048.94 51.2991H1048.49L1050.2 47.5887H1050.79L1052.51 51.2844ZM1049.69 49.9066H1051.3L1050.62 48.3966C1050.57 48.2824 1050.53 48.1657 1050.49 48.047C1050.47 48.1175 1050.45 48.1851 1050.43 48.2439L1050.37 48.3996L1049.69 49.9066Z" fill="#8E8F99"/>
<path d="M1055.45 50.9202C1055.55 50.925 1055.66 50.925 1055.77 50.9202C1055.86 50.912 1055.95 50.8972 1056.04 50.8761C1056.12 50.8584 1056.2 50.8359 1056.28 50.8085C1056.36 50.7821 1056.43 50.7498 1056.51 50.7174V49.883H1055.83C1055.82 49.8838 1055.8 49.8816 1055.78 49.8766C1055.77 49.8715 1055.75 49.8637 1055.74 49.8536C1055.73 49.8453 1055.72 49.8349 1055.71 49.8232C1055.71 49.8115 1055.71 49.7988 1055.71 49.786V49.501H1057.03V50.9231C1056.92 50.9897 1056.81 51.0486 1056.69 51.0994C1056.57 51.1511 1056.44 51.1934 1056.31 51.2257C1056.17 51.2611 1056.03 51.2866 1055.88 51.3021C1055.72 51.3179 1055.55 51.3258 1055.39 51.3256C1055.09 51.3278 1054.8 51.2809 1054.53 51.1875C1054.27 51.0991 1054.04 50.9672 1053.85 50.7997C1053.66 50.6305 1053.51 50.4309 1053.41 50.2121C1053.3 49.9661 1053.25 49.705 1053.25 49.4423C1053.25 49.1778 1053.3 48.9151 1053.4 48.6666C1053.5 48.4467 1053.65 48.2466 1053.84 48.079C1054.04 47.912 1054.27 47.7811 1054.52 47.6941C1054.82 47.5994 1055.13 47.5526 1055.44 47.556C1055.6 47.5558 1055.75 47.5666 1055.91 47.5883C1056.05 47.6077 1056.18 47.6392 1056.32 47.6823C1056.43 47.7209 1056.55 47.7701 1056.66 47.8292C1056.76 47.8872 1056.86 47.952 1056.95 48.0231L1056.79 48.2523C1056.78 48.2732 1056.76 48.2908 1056.73 48.3032C1056.71 48.3156 1056.68 48.3224 1056.66 48.3228C1056.62 48.3218 1056.58 48.3116 1056.55 48.2934C1056.5 48.2699 1056.44 48.2406 1056.38 48.2053C1056.31 48.1661 1056.23 48.1327 1056.16 48.1054C1056.05 48.0703 1055.95 48.0427 1055.84 48.0231C1055.7 48.0005 1055.55 47.9896 1055.41 47.9908C1055.19 47.9887 1054.96 48.0236 1054.75 48.0936C1054.56 48.1592 1054.39 48.2595 1054.25 48.3875C1054.11 48.5209 1054 48.6779 1053.94 48.8488C1053.78 49.2506 1053.78 49.6838 1053.94 50.0857C1054.01 50.2602 1054.13 50.4194 1054.28 50.5529C1054.42 50.6802 1054.59 50.7804 1054.77 50.8467C1054.99 50.9108 1055.22 50.9359 1055.45 50.9202Z" fill="#8E8F99"/>
<path d="M1060.87 50.8611H1062.73V51.2842H1060.31V47.5736H1060.89L1060.87 50.8611Z" fill="#8E8F99"/>
<path d="M1064.67 51.2842H1064.08V47.5736H1064.67V51.2842Z" fill="#8E8F99"/>
<path d="M1066.83 47.5913C1066.87 47.6083 1066.9 47.6313 1066.92 47.6589L1069.41 50.4559C1069.41 50.4119 1069.41 50.3677 1069.41 50.3237C1069.41 50.2826 1069.41 50.2414 1069.41 50.2032V47.559H1069.92V51.2845H1069.62C1069.58 51.2875 1069.54 51.2804 1069.5 51.2639C1069.46 51.2454 1069.43 51.2215 1069.41 51.1934L1066.92 48.3993C1066.92 48.4433 1066.92 48.4845 1066.92 48.5256C1066.92 48.5667 1066.92 48.6049 1066.92 48.6402V51.2845H1066.43V47.5737H1066.74C1066.77 47.5737 1066.8 47.5797 1066.83 47.5913Z" fill="#8E8F99"/>
<path d="M1074.2 47.5736V47.982H1072.14V49.2071H1073.81V49.6008H1072.14V50.8671H1074.2V51.2754H1071.54V47.5736H1074.2Z" fill="#8E8F99"/>
<path d="M1013.2 24.6587L1039.05 30.9927V53.1883L1013.2 46.8572V24.6587ZM1011.54 22.7667V47.9354L1040.7 55.0832V29.9175L1011.54 22.7667Z" fill="#8E8F99"/>
<path d="M1027.17 66.7667L998 59.6129V34.4469L1027.17 41.5977V66.7667Z" fill="#8E8F99"/>
<path d="M1012.02 24.3737L1037.54 30.6283L1026.68 39.9941L1001.17 33.7365L1012.02 24.3737ZM1011.54 22.7667L998 34.4475L1027.17 41.5981L1040.7 29.9174L1011.54 22.7667Z" fill="#8E8F99"/>
<path d="M1028.81 65.3509L1040.7 55.0863L1028.81 52.1691V65.3509Z" fill="#8E8F99"/>
</svg>
