<svg width="1050" height="500" viewBox="0 0 1050 500" fill="none" xmlns="http://www.w3.org/2000/svg">
<rect x="20.5" y="284.5" width="167" height="87" rx="3.5" stroke="#8E8F99"/>
<path d="M76.0782 321.518H76.0753C73.6897 321.518 71.7557 323.262 71.7557 325.412V325.415C71.7557 327.566 73.6897 329.309 76.0753 329.309H76.0782C78.4638 329.309 80.3978 327.566 80.3978 325.415V325.412C80.3978 323.262 78.4638 321.518 76.0782 321.518Z" fill="#8E8F99"/>
<path d="M107.961 320.273C107.955 317.286 106.636 314.422 104.293 312.309C101.95 310.197 98.7745 309.007 95.461 309V309C92.1466 309.005 88.9696 310.195 86.6256 312.308C84.2817 314.42 82.9618 317.285 82.955 320.273V336.747C82.955 336.747 107.959 334.236 107.961 320.276V320.273Z" fill="#8E8F99"/>
<path d="M63 342.154C63.006 344.233 63.9243 346.225 65.5543 347.695C67.1843 349.165 69.3935 349.994 71.699 350C74.004 349.994 76.2127 349.166 77.8426 347.696C79.4725 346.226 80.3912 344.235 80.398 342.157V330.694C80.398 330.694 63 332.442 63 342.154ZM71.699 344.208C71.2484 344.208 70.808 344.088 70.4334 343.862C70.0588 343.636 69.7668 343.316 69.5944 342.94C69.422 342.565 69.3769 342.152 69.4648 341.754C69.5527 341.355 69.7696 340.989 70.0882 340.702C70.4068 340.415 70.8127 340.219 71.2546 340.14C71.6965 340.061 72.1545 340.101 72.5707 340.257C72.987 340.412 73.3427 340.675 73.593 341.013C73.8433 341.351 73.9769 341.748 73.9769 342.154C73.9781 342.425 73.92 342.693 73.806 342.943C73.692 343.193 73.5244 343.42 73.3128 343.612C73.1011 343.803 72.8496 343.955 72.5727 344.059C72.2958 344.162 71.9988 344.216 71.699 344.216V344.208Z" fill="#8E8F99"/>
<path d="M87.6089 340.515V344.781H86.73V340.515H87.6089ZM89.3081 342.337V343.023H87.3687V342.337H89.3081ZM89.5132 340.515V341.203H87.3687V340.515H89.5132ZM93.5269 342.548V342.75C93.5269 343.075 93.4829 343.366 93.395 343.623C93.3071 343.881 93.1831 344.101 93.0229 344.283C92.8628 344.462 92.6714 344.6 92.4487 344.696C92.228 344.791 91.9829 344.839 91.7134 344.839C91.4458 344.839 91.2007 344.791 90.978 344.696C90.7573 344.6 90.5659 344.462 90.4038 344.283C90.2417 344.101 90.1157 343.881 90.0259 343.623C89.938 343.366 89.894 343.075 89.894 342.75V342.548C89.894 342.222 89.938 341.931 90.0259 341.675C90.1138 341.417 90.2378 341.198 90.3979 341.016C90.5601 340.834 90.7515 340.696 90.9722 340.6C91.1948 340.504 91.4399 340.456 91.7075 340.456C91.9771 340.456 92.2222 340.504 92.4429 340.6C92.6655 340.696 92.8569 340.834 93.0171 341.016C93.1792 341.198 93.3042 341.417 93.3921 341.675C93.4819 341.931 93.5269 342.222 93.5269 342.548ZM92.6392 342.75V342.542C92.6392 342.316 92.6187 342.117 92.5776 341.945C92.5366 341.773 92.4761 341.628 92.396 341.511C92.3159 341.394 92.2183 341.306 92.103 341.247C91.9878 341.187 91.856 341.157 91.7075 341.157C91.5591 341.157 91.4272 341.187 91.312 341.247C91.1987 341.306 91.1021 341.394 91.022 341.511C90.9438 341.628 90.8843 341.773 90.8433 341.945C90.8022 342.117 90.7817 342.316 90.7817 342.542V342.75C90.7817 342.975 90.8022 343.174 90.8433 343.348C90.8843 343.52 90.9448 343.665 91.0249 343.784C91.105 343.902 91.2026 343.991 91.3179 344.051C91.4331 344.112 91.5649 344.142 91.7134 344.142C91.8618 344.142 91.9937 344.112 92.1089 344.051C92.2241 343.991 92.3208 343.902 92.3989 343.784C92.4771 343.665 92.5366 343.52 92.5776 343.348C92.6187 343.174 92.6392 342.975 92.6392 342.75ZM96.3804 343.664C96.3804 343.588 96.3687 343.52 96.3452 343.459C96.3237 343.397 96.2827 343.34 96.2222 343.289C96.1616 343.237 96.0767 343.185 95.9673 343.134C95.8579 343.083 95.7163 343.031 95.5425 342.976C95.3491 342.913 95.1655 342.843 94.9917 342.765C94.8198 342.687 94.6675 342.596 94.5347 342.492C94.4038 342.387 94.3003 342.265 94.2241 342.126C94.1499 341.988 94.1128 341.826 94.1128 341.643C94.1128 341.465 94.1519 341.304 94.23 341.159C94.3081 341.013 94.4175 340.888 94.5581 340.784C94.6987 340.679 94.8647 340.598 95.0562 340.541C95.2495 340.485 95.4614 340.456 95.6919 340.456C96.0063 340.456 96.2808 340.513 96.5151 340.626C96.7495 340.74 96.9312 340.895 97.0601 341.092C97.1909 341.289 97.2563 341.515 97.2563 341.769H96.3833C96.3833 341.644 96.3569 341.534 96.3042 341.441C96.2534 341.345 96.1753 341.27 96.0698 341.215C95.9663 341.16 95.8354 341.133 95.6772 341.133C95.5249 341.133 95.3979 341.157 95.2964 341.203C95.1948 341.248 95.1187 341.31 95.0679 341.388C95.0171 341.464 94.9917 341.55 94.9917 341.646C94.9917 341.718 95.0093 341.784 95.0444 341.842C95.0815 341.901 95.1362 341.955 95.2085 342.006C95.2808 342.057 95.3696 342.105 95.4751 342.15C95.5806 342.195 95.7026 342.239 95.8413 342.282C96.0737 342.352 96.2778 342.431 96.4536 342.519C96.6313 342.607 96.7798 342.705 96.8989 342.815C97.0181 342.924 97.1079 343.048 97.1685 343.187C97.229 343.326 97.2593 343.483 97.2593 343.659C97.2593 343.844 97.2231 344.01 97.1509 344.157C97.0786 344.303 96.9741 344.427 96.8374 344.529C96.7007 344.63 96.5376 344.707 96.3481 344.76C96.1587 344.813 95.9468 344.839 95.7124 344.839C95.5015 344.839 95.2935 344.812 95.0884 344.757C94.8833 344.701 94.6968 344.616 94.5288 344.502C94.3628 344.389 94.23 344.244 94.1304 344.069C94.0308 343.893 93.981 343.685 93.981 343.445H94.8628C94.8628 343.577 94.8833 343.69 94.9243 343.782C94.9653 343.873 95.0229 343.948 95.0972 344.004C95.1733 344.061 95.2632 344.102 95.3667 344.127C95.4722 344.153 95.5874 344.165 95.7124 344.165C95.8647 344.165 95.9897 344.144 96.0874 344.101C96.187 344.058 96.2603 343.998 96.3071 343.922C96.356 343.846 96.3804 343.76 96.3804 343.664ZM99.7642 340.515V344.781H98.8882V340.515H99.7642ZM101.077 340.515V341.203H97.5962V340.515H101.077ZM104.44 344.095V344.781H102.169V344.095H104.44ZM102.457 340.515V344.781H101.578V340.515H102.457ZM104.144 342.252V342.92H102.169V342.252H104.144ZM104.437 340.515V341.203H102.169V340.515H104.437ZM104.953 340.515H106.543C106.87 340.515 107.15 340.564 107.384 340.661C107.621 340.759 107.802 340.904 107.929 341.095C108.056 341.286 108.12 341.522 108.12 341.801C108.12 342.03 108.081 342.226 108.002 342.39C107.926 342.552 107.818 342.688 107.677 342.797C107.539 342.905 107.375 342.991 107.188 343.055L106.91 343.201H105.527L105.521 342.516H106.549C106.704 342.516 106.832 342.489 106.933 342.434C107.035 342.379 107.111 342.303 107.162 342.205C107.214 342.108 107.241 341.994 107.241 341.866C107.241 341.729 107.215 341.611 107.165 341.511C107.114 341.411 107.037 341.335 106.933 341.283C106.83 341.23 106.7 341.203 106.543 341.203H105.832V344.781H104.953V340.515ZM107.337 344.781L106.365 342.879L107.293 342.873L108.278 344.74V344.781H107.337ZM111.952 343.26H110.865V342.575H111.952C112.12 342.575 112.256 342.547 112.362 342.492C112.467 342.436 112.544 342.358 112.593 342.258C112.642 342.159 112.667 342.046 112.667 341.921C112.667 341.794 112.642 341.676 112.593 341.567C112.544 341.457 112.467 341.369 112.362 341.303C112.256 341.237 112.12 341.203 111.952 341.203H111.169V344.781H110.291V340.515H111.952C112.286 340.515 112.572 340.576 112.81 340.697C113.05 340.816 113.234 340.981 113.361 341.192C113.488 341.403 113.551 341.644 113.551 341.915C113.551 342.191 113.488 342.429 113.361 342.63C113.234 342.831 113.05 342.987 112.81 343.096C112.572 343.205 112.286 343.26 111.952 343.26ZM117.02 344.095V344.781H114.75V344.095H117.02ZM115.037 340.515V344.781H114.158V340.515H115.037ZM116.724 342.252V342.92H114.75V342.252H116.724ZM117.017 340.515V341.203H114.75V340.515H117.017ZM119.499 340.515V344.781H118.623V340.515H119.499ZM120.811 340.515V341.203H117.331V340.515H120.811ZM124.174 344.095V344.781H121.904V344.095H124.174ZM122.191 340.515V344.781H121.312V340.515H122.191ZM123.878 342.252V342.92H121.904V342.252H123.878ZM124.171 340.515V341.203H121.904V340.515H124.171ZM124.687 340.515H126.278C126.604 340.515 126.884 340.564 127.119 340.661C127.355 340.759 127.537 340.904 127.664 341.095C127.791 341.286 127.854 341.522 127.854 341.801C127.854 342.03 127.815 342.226 127.737 342.39C127.661 342.552 127.552 342.688 127.412 342.797C127.273 342.905 127.11 342.991 126.922 343.055L126.644 343.201H125.261L125.255 342.516H126.284C126.438 342.516 126.566 342.489 126.667 342.434C126.769 342.379 126.845 342.303 126.896 342.205C126.949 342.108 126.975 341.994 126.975 341.866C126.975 341.729 126.95 341.611 126.899 341.511C126.848 341.411 126.771 341.335 126.667 341.283C126.564 341.23 126.434 341.203 126.278 341.203H125.566V344.781H124.687V340.515ZM127.072 344.781L126.099 342.879L127.028 342.873L128.012 344.74V344.781H127.072ZM130.751 343.664C130.751 343.588 130.74 343.52 130.716 343.459C130.695 343.397 130.654 343.34 130.593 343.289C130.533 343.237 130.448 343.185 130.338 343.134C130.229 343.083 130.087 343.031 129.914 342.976C129.72 342.913 129.537 342.843 129.363 342.765C129.191 342.687 129.039 342.596 128.906 342.492C128.775 342.387 128.671 342.265 128.595 342.126C128.521 341.988 128.484 341.826 128.484 341.643C128.484 341.465 128.523 341.304 128.601 341.159C128.679 341.013 128.789 340.888 128.929 340.784C129.07 340.679 129.236 340.598 129.427 340.541C129.621 340.485 129.833 340.456 130.063 340.456C130.377 340.456 130.652 340.513 130.886 340.626C131.121 340.74 131.302 340.895 131.431 341.092C131.562 341.289 131.627 341.515 131.627 341.769H130.754C130.754 341.644 130.728 341.534 130.675 341.441C130.625 341.345 130.546 341.27 130.441 341.215C130.337 341.16 130.207 341.133 130.048 341.133C129.896 341.133 129.769 341.157 129.667 341.203C129.566 341.248 129.49 341.31 129.439 341.388C129.388 341.464 129.363 341.55 129.363 341.646C129.363 341.718 129.38 341.784 129.416 341.842C129.453 341.901 129.507 341.955 129.58 342.006C129.652 342.057 129.741 342.105 129.846 342.15C129.952 342.195 130.074 342.239 130.212 342.282C130.445 342.352 130.649 342.431 130.825 342.519C131.002 342.607 131.151 342.705 131.27 342.815C131.389 342.924 131.479 343.048 131.54 343.187C131.6 343.326 131.63 343.483 131.63 343.659C131.63 343.844 131.594 344.01 131.522 344.157C131.45 344.303 131.345 344.427 131.208 344.529C131.072 344.63 130.909 344.707 130.719 344.76C130.53 344.813 130.318 344.839 130.083 344.839C129.873 344.839 129.665 344.812 129.459 344.757C129.254 344.701 129.068 344.616 128.9 344.502C128.734 344.389 128.601 344.244 128.501 344.069C128.402 343.893 128.352 343.685 128.352 343.445H129.234C129.234 343.577 129.254 343.69 129.295 343.782C129.336 343.873 129.394 343.948 129.468 344.004C129.544 344.061 129.634 344.102 129.738 344.127C129.843 344.153 129.958 344.165 130.083 344.165C130.236 344.165 130.361 344.144 130.458 344.101C130.558 344.058 130.631 343.998 130.678 343.922C130.727 343.846 130.751 343.76 130.751 343.664Z" fill="#8E8F99"/>
<rect x="20.5" y="392.5" width="167" height="87" rx="3.5" stroke="#404BBF"/>
<path d="M76.0782 429.518H76.0753C73.6897 429.518 71.7557 431.262 71.7557 433.412V433.415C71.7557 435.566 73.6897 437.309 76.0753 437.309H76.0782C78.4638 437.309 80.3978 435.566 80.3978 433.415V433.412C80.3978 431.262 78.4638 429.518 76.0782 429.518Z" fill="#404BBF"/>
<path d="M107.961 428.273C107.955 425.286 106.636 422.422 104.293 420.309C101.95 418.197 98.7745 417.007 95.461 417V417C92.1466 417.005 88.9696 418.195 86.6256 420.308C84.2817 422.42 82.9618 425.285 82.955 428.273V444.747C82.955 444.747 107.959 442.236 107.961 428.276V428.273Z" fill="#404BBF"/>
<path d="M63 450.154C63.006 452.233 63.9243 454.225 65.5543 455.695C67.1843 457.165 69.3935 457.994 71.699 458C74.004 457.994 76.2127 457.166 77.8426 455.696C79.4725 454.226 80.3912 452.235 80.398 450.157V438.694C80.398 438.694 63 440.442 63 450.154ZM71.699 452.208C71.2484 452.208 70.808 452.088 70.4334 451.862C70.0588 451.636 69.7668 451.316 69.5944 450.94C69.422 450.565 69.3769 450.152 69.4648 449.754C69.5527 449.355 69.7696 448.989 70.0882 448.702C70.4068 448.415 70.8127 448.219 71.2546 448.14C71.6965 448.061 72.1545 448.101 72.5707 448.257C72.987 448.412 73.3427 448.675 73.593 449.013C73.8433 449.351 73.9769 449.748 73.9769 450.154C73.9781 450.425 73.92 450.693 73.806 450.943C73.692 451.193 73.5244 451.42 73.3128 451.612C73.1011 451.803 72.8496 451.955 72.5727 452.059C72.2958 452.162 71.9988 452.216 71.699 452.216V452.208Z" fill="#404BBF"/>
<path d="M87.6089 448.515V452.781H86.73V448.515H87.6089ZM89.3081 450.337V451.023H87.3687V450.337H89.3081ZM89.5132 448.515V449.203H87.3687V448.515H89.5132ZM93.5269 450.548V450.75C93.5269 451.075 93.4829 451.366 93.395 451.623C93.3071 451.881 93.1831 452.101 93.0229 452.283C92.8628 452.462 92.6714 452.6 92.4487 452.696C92.228 452.791 91.9829 452.839 91.7134 452.839C91.4458 452.839 91.2007 452.791 90.978 452.696C90.7573 452.6 90.5659 452.462 90.4038 452.283C90.2417 452.101 90.1157 451.881 90.0259 451.623C89.938 451.366 89.894 451.075 89.894 450.75V450.548C89.894 450.222 89.938 449.931 90.0259 449.675C90.1138 449.417 90.2378 449.198 90.3979 449.016C90.5601 448.834 90.7515 448.696 90.9722 448.6C91.1948 448.504 91.4399 448.456 91.7075 448.456C91.9771 448.456 92.2222 448.504 92.4429 448.6C92.6655 448.696 92.8569 448.834 93.0171 449.016C93.1792 449.198 93.3042 449.417 93.3921 449.675C93.4819 449.931 93.5269 450.222 93.5269 450.548ZM92.6392 450.75V450.542C92.6392 450.316 92.6187 450.117 92.5776 449.945C92.5366 449.773 92.4761 449.628 92.396 449.511C92.3159 449.394 92.2183 449.306 92.103 449.247C91.9878 449.187 91.856 449.157 91.7075 449.157C91.5591 449.157 91.4272 449.187 91.312 449.247C91.1987 449.306 91.1021 449.394 91.022 449.511C90.9438 449.628 90.8843 449.773 90.8433 449.945C90.8022 450.117 90.7817 450.316 90.7817 450.542V450.75C90.7817 450.975 90.8022 451.174 90.8433 451.348C90.8843 451.52 90.9448 451.665 91.0249 451.784C91.105 451.902 91.2026 451.991 91.3179 452.051C91.4331 452.112 91.5649 452.142 91.7134 452.142C91.8618 452.142 91.9937 452.112 92.1089 452.051C92.2241 451.991 92.3208 451.902 92.3989 451.784C92.4771 451.665 92.5366 451.52 92.5776 451.348C92.6187 451.174 92.6392 450.975 92.6392 450.75ZM96.3804 451.664C96.3804 451.588 96.3687 451.52 96.3452 451.459C96.3237 451.397 96.2827 451.34 96.2222 451.289C96.1616 451.237 96.0767 451.185 95.9673 451.134C95.8579 451.083 95.7163 451.031 95.5425 450.976C95.3491 450.913 95.1655 450.843 94.9917 450.765C94.8198 450.687 94.6675 450.596 94.5347 450.492C94.4038 450.387 94.3003 450.265 94.2241 450.126C94.1499 449.988 94.1128 449.826 94.1128 449.643C94.1128 449.465 94.1519 449.304 94.23 449.159C94.3081 449.013 94.4175 448.888 94.5581 448.784C94.6987 448.679 94.8647 448.598 95.0562 448.541C95.2495 448.485 95.4614 448.456 95.6919 448.456C96.0063 448.456 96.2808 448.513 96.5151 448.626C96.7495 448.74 96.9312 448.895 97.0601 449.092C97.1909 449.289 97.2563 449.515 97.2563 449.769H96.3833C96.3833 449.644 96.3569 449.534 96.3042 449.441C96.2534 449.345 96.1753 449.27 96.0698 449.215C95.9663 449.16 95.8354 449.133 95.6772 449.133C95.5249 449.133 95.3979 449.157 95.2964 449.203C95.1948 449.248 95.1187 449.31 95.0679 449.388C95.0171 449.464 94.9917 449.55 94.9917 449.646C94.9917 449.718 95.0093 449.784 95.0444 449.842C95.0815 449.901 95.1362 449.955 95.2085 450.006C95.2808 450.057 95.3696 450.105 95.4751 450.15C95.5806 450.195 95.7026 450.239 95.8413 450.282C96.0737 450.352 96.2778 450.431 96.4536 450.519C96.6313 450.607 96.7798 450.705 96.8989 450.815C97.0181 450.924 97.1079 451.048 97.1685 451.187C97.229 451.326 97.2593 451.483 97.2593 451.659C97.2593 451.844 97.2231 452.01 97.1509 452.157C97.0786 452.303 96.9741 452.427 96.8374 452.529C96.7007 452.63 96.5376 452.707 96.3481 452.76C96.1587 452.813 95.9468 452.839 95.7124 452.839C95.5015 452.839 95.2935 452.812 95.0884 452.757C94.8833 452.701 94.6968 452.616 94.5288 452.502C94.3628 452.389 94.23 452.244 94.1304 452.069C94.0308 451.893 93.981 451.685 93.981 451.445H94.8628C94.8628 451.577 94.8833 451.69 94.9243 451.782C94.9653 451.873 95.0229 451.948 95.0972 452.004C95.1733 452.061 95.2632 452.102 95.3667 452.127C95.4722 452.153 95.5874 452.165 95.7124 452.165C95.8647 452.165 95.9897 452.144 96.0874 452.101C96.187 452.058 96.2603 451.998 96.3071 451.922C96.356 451.846 96.3804 451.76 96.3804 451.664ZM99.7642 448.515V452.781H98.8882V448.515H99.7642ZM101.077 448.515V449.203H97.5962V448.515H101.077ZM104.44 452.095V452.781H102.169V452.095H104.44ZM102.457 448.515V452.781H101.578V448.515H102.457ZM104.144 450.252V450.92H102.169V450.252H104.144ZM104.437 448.515V449.203H102.169V448.515H104.437ZM104.953 448.515H106.543C106.87 448.515 107.15 448.564 107.384 448.661C107.621 448.759 107.802 448.904 107.929 449.095C108.056 449.286 108.12 449.522 108.12 449.801C108.12 450.03 108.081 450.226 108.002 450.39C107.926 450.552 107.818 450.688 107.677 450.797C107.539 450.905 107.375 450.991 107.188 451.055L106.91 451.201H105.527L105.521 450.516H106.549C106.704 450.516 106.832 450.489 106.933 450.434C107.035 450.379 107.111 450.303 107.162 450.205C107.214 450.108 107.241 449.994 107.241 449.866C107.241 449.729 107.215 449.611 107.165 449.511C107.114 449.411 107.037 449.335 106.933 449.283C106.83 449.23 106.7 449.203 106.543 449.203H105.832V452.781H104.953V448.515ZM107.337 452.781L106.365 450.879L107.293 450.873L108.278 452.74V452.781H107.337ZM111.952 451.26H110.865V450.575H111.952C112.12 450.575 112.256 450.547 112.362 450.492C112.467 450.436 112.544 450.358 112.593 450.258C112.642 450.159 112.667 450.046 112.667 449.921C112.667 449.794 112.642 449.676 112.593 449.567C112.544 449.457 112.467 449.369 112.362 449.303C112.256 449.237 112.12 449.203 111.952 449.203H111.169V452.781H110.291V448.515H111.952C112.286 448.515 112.572 448.576 112.81 448.697C113.05 448.816 113.234 448.981 113.361 449.192C113.488 449.403 113.551 449.644 113.551 449.915C113.551 450.191 113.488 450.429 113.361 450.63C113.234 450.831 113.05 450.987 112.81 451.096C112.572 451.205 112.286 451.26 111.952 451.26ZM117.02 452.095V452.781H114.75V452.095H117.02ZM115.037 448.515V452.781H114.158V448.515H115.037ZM116.724 450.252V450.92H114.75V450.252H116.724ZM117.017 448.515V449.203H114.75V448.515H117.017ZM119.499 448.515V452.781H118.623V448.515H119.499ZM120.811 448.515V449.203H117.331V448.515H120.811ZM124.174 452.095V452.781H121.904V452.095H124.174ZM122.191 448.515V452.781H121.312V448.515H122.191ZM123.878 450.252V450.92H121.904V450.252H123.878ZM124.171 448.515V449.203H121.904V448.515H124.171ZM124.687 448.515H126.278C126.604 448.515 126.884 448.564 127.119 448.661C127.355 448.759 127.537 448.904 127.664 449.095C127.791 449.286 127.854 449.522 127.854 449.801C127.854 450.03 127.815 450.226 127.737 450.39C127.661 450.552 127.552 450.688 127.412 450.797C127.273 450.905 127.11 450.991 126.922 451.055L126.644 451.201H125.261L125.255 450.516H126.284C126.438 450.516 126.566 450.489 126.667 450.434C126.769 450.379 126.845 450.303 126.896 450.205C126.949 450.108 126.975 449.994 126.975 449.866C126.975 449.729 126.95 449.611 126.899 449.511C126.848 449.411 126.771 449.335 126.667 449.283C126.564 449.23 126.434 449.203 126.278 449.203H125.566V452.781H124.687V448.515ZM127.072 452.781L126.099 450.879L127.028 450.873L128.012 452.74V452.781H127.072ZM130.751 451.664C130.751 451.588 130.74 451.52 130.716 451.459C130.695 451.397 130.654 451.34 130.593 451.289C130.533 451.237 130.448 451.185 130.338 451.134C130.229 451.083 130.087 451.031 129.914 450.976C129.72 450.913 129.537 450.843 129.363 450.765C129.191 450.687 129.039 450.596 128.906 450.492C128.775 450.387 128.671 450.265 128.595 450.126C128.521 449.988 128.484 449.826 128.484 449.643C128.484 449.465 128.523 449.304 128.601 449.159C128.679 449.013 128.789 448.888 128.929 448.784C129.07 448.679 129.236 448.598 129.427 448.541C129.621 448.485 129.833 448.456 130.063 448.456C130.377 448.456 130.652 448.513 130.886 448.626C131.121 448.74 131.302 448.895 131.431 449.092C131.562 449.289 131.627 449.515 131.627 449.769H130.754C130.754 449.644 130.728 449.534 130.675 449.441C130.625 449.345 130.546 449.27 130.441 449.215C130.337 449.16 130.207 449.133 130.048 449.133C129.896 449.133 129.769 449.157 129.667 449.203C129.566 449.248 129.49 449.31 129.439 449.388C129.388 449.464 129.363 449.55 129.363 449.646C129.363 449.718 129.38 449.784 129.416 449.842C129.453 449.901 129.507 449.955 129.58 450.006C129.652 450.057 129.741 450.105 129.846 450.15C129.952 450.195 130.074 450.239 130.212 450.282C130.445 450.352 130.649 450.431 130.825 450.519C131.002 450.607 131.151 450.705 131.27 450.815C131.389 450.924 131.479 451.048 131.54 451.187C131.6 451.326 131.63 451.483 131.63 451.659C131.63 451.844 131.594 452.01 131.522 452.157C131.45 452.303 131.345 452.427 131.208 452.529C131.072 452.63 130.909 452.707 130.719 452.76C130.53 452.813 130.318 452.839 130.083 452.839C129.873 452.839 129.665 452.812 129.459 452.757C129.254 452.701 129.068 452.616 128.9 452.502C128.734 452.389 128.601 452.244 128.501 452.069C128.402 451.893 128.352 451.685 128.352 451.445H129.234C129.234 451.577 129.254 451.69 129.295 451.782C129.336 451.873 129.394 451.948 129.468 452.004C129.544 452.061 129.634 452.102 129.738 452.127C129.843 452.153 129.958 452.165 130.083 452.165C130.236 452.165 130.361 452.144 130.458 452.101C130.558 452.058 130.631 451.998 130.678 451.922C130.727 451.846 130.751 451.76 130.751 451.664Z" fill="#404BBF"/>
<rect x="0.5" y="264.5" width="207" height="235" rx="4.5" stroke="#9747FF" stroke-dasharray="10 5"/>
<rect x="20.5" y="20.5" width="167" height="87" rx="3.5" stroke="#8E8F99"/>
<path fill-rule="evenodd" clip-rule="evenodd" d="M90 43L97.0078 49.6764L84 49.6687V82.0609H118V69.6758L125 76.3448V43H90ZM117.692 68.8922L97.8226 49.962H117.692V68.8922ZM111.523 77.3227H89.3801V55.5373H90.9453V75.8475H111.523V77.3227ZM93.7959 88.0611L92.9707 86.3643H92.2896L93.4858 88.6104V89.919H94.1035V88.6104L95.2998 86.3643H94.6211L93.7959 88.0611ZM96.8379 86.3643H96.9844L98.3271 89.919H97.6826L97.395 89.0865H96.0189L95.7319 89.919H95.0898L96.4277 86.3643H96.5718H96.8379ZM96.1864 88.6007H97.2271L96.7062 87.0927L96.1864 88.6007ZM100.482 88.0117C100.455 87.9776 100.43 87.9445 100.405 87.9122C100.314 87.7917 100.243 87.6754 100.192 87.5631C100.142 87.4491 100.117 87.3319 100.117 87.2115C100.117 87.026 100.155 86.8665 100.231 86.733C100.308 86.5995 100.416 86.497 100.556 86.4254C100.696 86.3521 100.86 86.3155 101.047 86.3155C101.228 86.3155 101.383 86.3521 101.513 86.4254C101.645 86.497 101.746 86.5922 101.816 86.711C101.888 86.8298 101.923 86.96 101.923 87.1016C101.923 87.2139 101.903 87.3165 101.862 87.4093C101.822 87.502 101.765 87.5867 101.694 87.6632C101.622 87.7397 101.539 87.8121 101.445 87.8805L101.198 88.0602L101.902 88.8909C101.925 88.8453 101.946 88.7973 101.965 88.7472C102.025 88.5909 102.055 88.4176 102.055 88.2271H102.563C102.563 88.3997 102.546 88.5632 102.512 88.7179C102.479 88.8725 102.426 89.0157 102.353 89.1475C102.323 89.2022 102.29 89.2545 102.252 89.3044L102.773 89.919H102.092L101.885 89.676C101.773 89.7609 101.652 89.8272 101.521 89.8751C101.348 89.9369 101.164 89.9679 100.969 89.9679C100.733 89.9679 100.528 89.9247 100.356 89.8385C100.183 89.7522 100.05 89.6334 99.9556 89.482C99.8628 89.3306 99.8164 89.1573 99.8164 88.962C99.8164 88.8171 99.8465 88.6902 99.9067 88.5811C99.967 88.4705 100.049 88.3679 100.153 88.2735C100.249 88.1862 100.359 88.099 100.482 88.0117ZM100.774 88.3689L100.7 88.4224C100.614 88.4924 100.55 88.56 100.507 88.6251C100.467 88.6886 100.44 88.7472 100.427 88.8009C100.414 88.8546 100.407 88.9018 100.407 88.9425C100.407 89.0466 100.429 89.141 100.473 89.2257C100.519 89.3103 100.585 89.3778 100.671 89.4283C100.759 89.4771 100.865 89.5015 100.991 89.5015C101.126 89.5015 101.257 89.4714 101.384 89.4112C101.447 89.3802 101.508 89.3429 101.565 89.2992L100.774 88.3689ZM100.914 87.7196L101.132 87.5728C101.235 87.5045 101.308 87.4377 101.352 87.3726C101.396 87.3059 101.418 87.2229 101.418 87.1236C101.418 87.039 101.385 86.9609 101.32 86.8892C101.255 86.8176 101.163 86.7818 101.044 86.7818C100.961 86.7818 100.891 86.8013 100.834 86.8404C100.778 86.8778 100.734 86.9283 100.705 86.9918C100.677 87.0536 100.664 87.1228 100.664 87.1993C100.664 87.2725 100.682 87.3482 100.72 87.4263C100.757 87.5028 100.808 87.5834 100.874 87.668C100.887 87.685 100.9 87.7021 100.914 87.7196ZM107.133 88.7618H106.523C106.505 88.9164 106.468 89.0474 106.411 89.1549C106.355 89.2607 106.273 89.3412 106.164 89.3966C106.057 89.4519 105.916 89.4796 105.742 89.4796C105.598 89.4796 105.476 89.4511 105.373 89.3941C105.271 89.3372 105.186 89.2566 105.119 89.1524C105.054 89.0483 105.005 88.9237 104.973 88.7789C104.942 88.6324 104.926 88.4696 104.926 88.2906V87.9903C104.926 87.8015 104.943 87.6339 104.978 87.4874C105.013 87.3393 105.066 87.2148 105.136 87.1138C105.206 87.0129 105.293 86.9364 105.397 86.8844C105.502 86.8323 105.624 86.8062 105.764 86.8062C105.935 86.8062 106.073 86.8355 106.179 86.8941C106.285 86.9511 106.364 87.0341 106.418 87.1431C106.473 87.2522 106.509 87.3832 106.525 87.5362H107.136C107.111 87.2986 107.045 87.0878 106.936 86.9039C106.828 86.72 106.677 86.5759 106.481 86.4718C106.286 86.3676 106.047 86.3155 105.764 86.3155C105.541 86.3155 105.34 86.3546 105.161 86.4327C104.983 86.5108 104.831 86.6239 104.704 86.7721C104.577 86.9185 104.479 87.0951 104.411 87.3018C104.344 87.5085 104.311 87.7397 104.311 87.9952V88.2906C104.311 88.5461 104.344 88.7773 104.409 88.984C104.475 89.1907 104.571 89.3673 104.697 89.5138C104.822 89.6586 104.973 89.7709 105.148 89.8507C105.324 89.9288 105.522 89.9679 105.742 89.9679C106.028 89.9679 106.271 89.9158 106.472 89.8116C106.672 89.7074 106.827 89.565 106.938 89.3844C107.049 89.2021 107.114 88.9945 107.133 88.7618ZM110.524 88.2393V88.044C110.524 87.7755 110.489 87.5354 110.417 87.3238C110.347 87.1106 110.247 86.9291 110.117 86.7794C109.986 86.628 109.831 86.5133 109.65 86.4351C109.47 86.3554 109.27 86.3155 109.05 86.3155C108.832 86.3155 108.632 86.3554 108.452 86.4351C108.273 86.5133 108.117 86.628 107.985 86.7794C107.855 86.9291 107.754 87.1106 107.683 87.3238C107.611 87.5354 107.575 87.7755 107.575 88.044V88.2393C107.575 88.5079 107.611 88.7488 107.683 88.962C107.756 89.1752 107.858 89.3567 107.99 89.5064C108.122 89.6562 108.278 89.7709 108.457 89.8507C108.637 89.9288 108.837 89.9679 109.055 89.9679C109.274 89.9679 109.475 89.9288 109.655 89.8507C109.836 89.7709 109.991 89.6562 110.119 89.5064C110.249 89.3567 110.349 89.1752 110.419 88.962C110.489 88.7488 110.524 88.5079 110.524 88.2393ZM109.912 88.0391V88.2393C109.912 88.4379 109.892 88.6137 109.853 88.7667C109.816 88.9197 109.76 89.0491 109.687 89.1549C109.614 89.259 109.524 89.338 109.418 89.3917C109.313 89.4438 109.191 89.4698 109.055 89.4698C108.92 89.4698 108.799 89.4438 108.693 89.3917C108.588 89.338 108.496 89.259 108.42 89.1549C108.345 89.0491 108.288 88.9197 108.249 88.7667C108.21 88.6137 108.19 88.4379 108.19 88.2393V88.0391C108.19 87.8406 108.21 87.6656 108.249 87.5142C108.288 87.3612 108.344 87.2335 108.417 87.1309C108.492 87.0268 108.583 86.9486 108.688 86.8966C108.794 86.8429 108.915 86.816 109.05 86.816C109.185 86.816 109.306 86.8429 109.414 86.8966C109.521 86.9486 109.611 87.0268 109.685 87.1309C109.759 87.2335 109.816 87.3612 109.853 87.5142C109.892 87.6656 109.912 87.8406 109.912 88.0391Z" fill="#8E8F99"/>
<rect x="20.5" y="128.5" width="167" height="87" rx="3.5" stroke="#404BBF"/>
<path fill-rule="evenodd" clip-rule="evenodd" d="M90 151L97.0078 157.676L84 157.669V190.061H118V177.676L125 184.345V151H90ZM117.692 176.892L97.8226 157.962H117.692V176.892ZM111.523 185.323H89.3801V163.537H90.9453V183.848H111.523V185.323ZM93.7959 196.061L92.9707 194.364H92.2896L93.4858 196.61V197.919H94.1035V196.61L95.2998 194.364H94.6211L93.7959 196.061ZM96.8379 194.364H96.9844L98.3271 197.919H97.6826L97.395 197.087H96.0189L95.7319 197.919H95.0898L96.4277 194.364H96.5718H96.8379ZM96.1864 196.601H97.2271L96.7062 195.093L96.1864 196.601ZM100.482 196.012C100.455 195.978 100.43 195.944 100.405 195.912C100.314 195.792 100.243 195.675 100.192 195.563C100.142 195.449 100.117 195.332 100.117 195.212C100.117 195.026 100.155 194.866 100.231 194.733C100.308 194.6 100.416 194.497 100.556 194.425C100.696 194.352 100.86 194.316 101.047 194.316C101.228 194.316 101.383 194.352 101.513 194.425C101.645 194.497 101.746 194.592 101.816 194.711C101.888 194.83 101.923 194.96 101.923 195.102C101.923 195.214 101.903 195.316 101.862 195.409C101.822 195.502 101.765 195.587 101.694 195.663C101.622 195.74 101.539 195.812 101.445 195.88L101.198 196.06L101.902 196.891C101.925 196.845 101.946 196.797 101.965 196.747C102.025 196.591 102.055 196.418 102.055 196.227H102.563C102.563 196.4 102.546 196.563 102.512 196.718C102.479 196.872 102.426 197.016 102.353 197.148C102.323 197.202 102.29 197.254 102.252 197.304L102.773 197.919H102.092L101.885 197.676C101.773 197.761 101.652 197.827 101.521 197.875C101.348 197.937 101.164 197.968 100.969 197.968C100.733 197.968 100.528 197.925 100.356 197.838C100.183 197.752 100.05 197.633 99.9556 197.482C99.8628 197.331 99.8164 197.157 99.8164 196.962C99.8164 196.817 99.8465 196.69 99.9067 196.581C99.967 196.47 100.049 196.368 100.153 196.274C100.249 196.186 100.359 196.099 100.482 196.012ZM100.774 196.369L100.7 196.422C100.614 196.492 100.55 196.56 100.507 196.625C100.467 196.689 100.44 196.747 100.427 196.801C100.414 196.855 100.407 196.902 100.407 196.942C100.407 197.047 100.429 197.141 100.473 197.226C100.519 197.31 100.585 197.378 100.671 197.428C100.759 197.477 100.865 197.502 100.991 197.502C101.126 197.502 101.257 197.471 101.384 197.411C101.447 197.38 101.508 197.343 101.565 197.299L100.774 196.369ZM100.914 195.72L101.132 195.573C101.235 195.504 101.308 195.438 101.352 195.373C101.396 195.306 101.418 195.223 101.418 195.124C101.418 195.039 101.385 194.961 101.32 194.889C101.255 194.818 101.163 194.782 101.044 194.782C100.961 194.782 100.891 194.801 100.834 194.84C100.778 194.878 100.734 194.928 100.705 194.992C100.677 195.054 100.664 195.123 100.664 195.199C100.664 195.273 100.682 195.348 100.72 195.426C100.757 195.503 100.808 195.583 100.874 195.668C100.887 195.685 100.9 195.702 100.914 195.72ZM107.133 196.762H106.523C106.505 196.916 106.468 197.047 106.411 197.155C106.355 197.261 106.273 197.341 106.164 197.397C106.057 197.452 105.916 197.48 105.742 197.48C105.598 197.48 105.476 197.451 105.373 197.394C105.271 197.337 105.186 197.257 105.119 197.152C105.054 197.048 105.005 196.924 104.973 196.779C104.942 196.632 104.926 196.47 104.926 196.291V195.99C104.926 195.802 104.943 195.634 104.978 195.487C105.013 195.339 105.066 195.215 105.136 195.114C105.206 195.013 105.293 194.936 105.397 194.884C105.502 194.832 105.624 194.806 105.764 194.806C105.935 194.806 106.073 194.836 106.179 194.894C106.285 194.951 106.364 195.034 106.418 195.143C106.473 195.252 106.509 195.383 106.525 195.536H107.136C107.111 195.299 107.045 195.088 106.936 194.904C106.828 194.72 106.677 194.576 106.481 194.472C106.286 194.368 106.047 194.316 105.764 194.316C105.541 194.316 105.34 194.355 105.161 194.433C104.983 194.511 104.831 194.624 104.704 194.772C104.577 194.919 104.479 195.095 104.411 195.302C104.344 195.509 104.311 195.74 104.311 195.995V196.291C104.311 196.546 104.344 196.777 104.409 196.984C104.475 197.191 104.571 197.367 104.697 197.514C104.822 197.659 104.973 197.771 105.148 197.851C105.324 197.929 105.522 197.968 105.742 197.968C106.028 197.968 106.271 197.916 106.472 197.812C106.672 197.707 106.827 197.565 106.938 197.384C107.049 197.202 107.114 196.995 107.133 196.762ZM110.524 196.239V196.044C110.524 195.775 110.489 195.535 110.417 195.324C110.347 195.111 110.247 194.929 110.117 194.779C109.986 194.628 109.831 194.513 109.65 194.435C109.47 194.355 109.27 194.316 109.05 194.316C108.832 194.316 108.632 194.355 108.452 194.435C108.273 194.513 108.117 194.628 107.985 194.779C107.855 194.929 107.754 195.111 107.683 195.324C107.611 195.535 107.575 195.775 107.575 196.044V196.239C107.575 196.508 107.611 196.749 107.683 196.962C107.756 197.175 107.858 197.357 107.99 197.506C108.122 197.656 108.278 197.771 108.457 197.851C108.637 197.929 108.837 197.968 109.055 197.968C109.274 197.968 109.475 197.929 109.655 197.851C109.836 197.771 109.991 197.656 110.119 197.506C110.249 197.357 110.349 197.175 110.419 196.962C110.489 196.749 110.524 196.508 110.524 196.239ZM109.912 196.039V196.239C109.912 196.438 109.892 196.614 109.853 196.767C109.816 196.92 109.76 197.049 109.687 197.155C109.614 197.259 109.524 197.338 109.418 197.392C109.313 197.444 109.191 197.47 109.055 197.47C108.92 197.47 108.799 197.444 108.693 197.392C108.588 197.338 108.496 197.259 108.42 197.155C108.345 197.049 108.288 196.92 108.249 196.767C108.21 196.614 108.19 196.438 108.19 196.239V196.039C108.19 195.841 108.21 195.666 108.249 195.514C108.288 195.361 108.344 195.233 108.417 195.131C108.492 195.027 108.583 194.949 108.688 194.897C108.794 194.843 108.915 194.816 109.05 194.816C109.185 194.816 109.306 194.843 109.414 194.897C109.521 194.949 109.611 195.027 109.685 195.131C109.759 195.233 109.816 195.361 109.853 195.514C109.892 195.666 109.912 195.841 109.912 196.039Z" fill="#404BBF"/>
<rect x="0.5" y="0.5" width="207" height="235" rx="4.5" stroke="#9747FF" stroke-dasharray="10 5"/>
<rect x="243.5" y="20.5" width="167" height="87" rx="3.5" stroke="#8E8F99"/>
<path fill-rule="evenodd" clip-rule="evenodd" d="M325.114 41.9345H324.977C324.767 41.9218 324.557 41.9167 324.347 41.9116H324.347H324.327H323.892C323.495 41.9116 323.09 41.9218 322.688 41.9421C322.657 41.9399 322.627 41.9399 322.597 41.9421C318.952 42.1486 315.382 43.0595 312.08 44.6249L311.648 44.8334V66.9746L312.66 66.6313C313.548 66.3261 314.494 66.0515 315.473 65.7972C318.119 65.1178 320.837 64.7567 323.568 64.7216V67.6306C323.206 67.6332 322.855 67.6434 322.503 67.6612H322.419C320.318 67.7765 318.232 68.0967 316.191 68.6173C313.607 69.2643 311.114 70.2357 308.772 71.5086V43.1119C311.205 41.6928 313.825 40.6269 316.556 39.946C318.953 39.3271 321.417 39.0093 323.892 39H324.319C324.83 39.0127 325.329 39.0356 325.797 39.0712C327.03 39.1578 328.253 39.3526 329.452 39.6535V42.5168C328.287 42.2455 327.103 42.067 325.91 41.9828C325.886 41.9808 325.862 41.9787 325.838 41.9767C325.591 41.9556 325.344 41.9345 325.114 41.9345ZM330.153 44.8614C330.788 44.9097 331.445 44.9326 332.111 44.9326C334.713 44.9231 337.303 44.5908 339.824 43.9434C342.407 43.294 344.899 42.3218 347.241 41.0496V68.9402C344.807 70.3585 342.185 71.4243 339.455 72.1061C337.057 72.7227 334.593 73.0395 332.118 73.0496C330.243 73.0647 328.374 72.8443 326.553 72.3935V44.3223C326.983 44.4215 327.426 44.513 327.876 44.5893C328.615 44.7139 329.394 44.8054 330.153 44.8614ZM344.347 45.0775L343.335 45.4183C342.404 45.7311 341.466 46.0108 340.522 46.26C337.775 46.966 334.951 47.3281 332.116 47.3382C331.456 47.3382 330.848 47.3204 330.262 47.2822L329.455 47.2288V67.3178V70.0057L330.148 70.0667C330.79 70.1227 331.453 70.1506 332.121 70.1506C334.354 70.1412 336.578 69.8533 338.741 69.2937C340.522 68.8469 342.255 68.2243 343.914 67.4348L344.347 67.2263V45.0775Z" fill="#8E8F99"/>
<path d="M310.737 81.2124C310.592 81.0615 310.416 80.943 310.222 80.8646C310.028 80.7862 309.82 80.7496 309.611 80.7572C309.389 80.7542 309.168 80.7957 308.961 80.8793C308.772 80.9547 308.6 81.068 308.455 81.2124C308.312 81.3572 308.201 81.5304 308.129 81.721C308.05 81.9207 308.01 82.1341 308.013 82.3491V86.1431C308.004 86.4104 308.055 86.6764 308.162 86.9212C308.251 87.1156 308.381 87.2889 308.541 87.4298C308.693 87.5575 308.871 87.6495 309.062 87.6994C309.247 87.7512 309.438 87.7777 309.629 87.7782C309.84 87.7803 310.05 87.7351 310.241 87.646C310.431 87.563 310.603 87.4438 310.747 87.295C310.888 87.1476 311.001 86.9752 311.079 86.7864C311.16 86.5951 311.201 86.3892 311.2 86.1812V85.7566H310.208V86.0948C310.211 86.2103 310.192 86.3252 310.15 86.433C310.118 86.5137 310.069 86.5866 310.006 86.6466C309.945 86.6962 309.874 86.7334 309.799 86.7559C309.732 86.7782 309.662 86.7902 309.591 86.7915C309.503 86.8018 309.413 86.7885 309.331 86.7527C309.249 86.717 309.179 86.6602 309.126 86.5881C309.032 86.4356 308.986 86.2585 308.994 86.0795V82.5423C308.988 82.3462 309.03 82.1515 309.116 81.9753C309.167 81.8952 309.24 81.8313 309.326 81.7908C309.412 81.7503 309.507 81.7349 309.601 81.7464C309.687 81.7434 309.772 81.7612 309.849 81.7984C309.926 81.8356 309.993 81.8911 310.044 81.96C310.155 82.1057 310.213 82.2852 310.208 82.4686V82.7966H311.19V82.4101C311.192 82.1831 311.151 81.9578 311.069 81.7464C310.995 81.5476 310.883 81.3659 310.737 81.2124Z" fill="#8E8F99"/>
<path d="M316.629 81.1691C316.313 80.9021 315.914 80.7546 315.501 80.7521C315.299 80.7529 315.098 80.7891 314.909 80.8589C314.716 80.9279 314.538 81.0332 314.385 81.1691C314.221 81.3168 314.09 81.498 314.001 81.7006C313.901 81.9323 313.851 82.183 313.856 82.4355V86.0744C313.85 86.3304 313.899 86.5847 314.001 86.8195C314.09 87.0151 314.222 87.1887 314.385 87.328C314.537 87.4688 314.715 87.5777 314.909 87.6485C315.098 87.7183 315.299 87.7544 315.501 87.7553C315.703 87.7549 315.903 87.7187 316.093 87.6485C316.29 87.5767 316.472 87.468 316.629 87.328C316.787 87.1861 316.915 87.013 317.003 86.8195C317.105 86.5847 317.154 86.3304 317.148 86.0744V82.4355C317.152 82.183 317.103 81.9323 317.003 81.7006C316.915 81.5001 316.788 81.3194 316.629 81.1691ZM316.166 86.0744C316.174 86.1714 316.161 86.269 316.127 86.3601C316.093 86.4512 316.039 86.5334 315.969 86.6008C315.838 86.7106 315.673 86.7708 315.502 86.7708C315.331 86.7708 315.166 86.7106 315.035 86.6008C314.965 86.5334 314.911 86.4512 314.877 86.3601C314.843 86.269 314.83 86.1714 314.838 86.0744V82.4355C314.83 82.3385 314.843 82.2409 314.877 82.1498C314.911 82.0587 314.965 81.9764 315.035 81.9091C315.166 81.7993 315.331 81.7391 315.502 81.7391C315.673 81.7391 315.838 81.7993 315.969 81.9091C316.039 81.9764 316.093 82.0587 316.127 82.1498C316.161 82.2409 316.174 82.3385 316.166 82.4355V86.0744Z" fill="#8E8F99"/>
<path d="M324.367 87.6994V80.8107H323.414L322.161 84.4572H322.144L320.881 80.8107H319.938V87.6994H320.922V83.5087H320.94L321.903 86.4712H322.394L323.366 83.5087H323.383V87.6994H324.367Z" fill="#8E8F99"/>
<path d="M329.958 81.2937C329.807 81.1237 329.615 80.9943 329.402 80.9173C329.171 80.8424 328.93 80.8063 328.688 80.8105H327.226V87.6993H328.207V85.0089H328.713C329.02 85.0228 329.324 84.958 329.599 84.8207C329.822 84.6968 330.008 84.515 330.138 84.2943C330.251 84.1111 330.328 83.9071 330.363 83.6942C330.401 83.435 330.419 83.173 330.416 82.911C330.425 82.5802 330.393 82.2495 330.32 81.9269C330.254 81.6885 330.13 81.4706 329.958 81.2937ZM329.452 83.3941C329.448 83.5188 329.417 83.6412 329.361 83.7527C329.305 83.8586 329.216 83.9434 329.108 83.9942C328.963 84.0593 328.804 84.0889 328.645 84.0807H328.197V81.7387H328.703C328.856 81.7312 329.008 81.7609 329.146 81.8251C329.248 81.8834 329.328 81.9724 329.376 82.0794C329.43 82.2004 329.459 82.331 329.462 82.4634C329.462 82.6084 329.462 82.7609 329.462 82.9211C329.462 83.0813 329.472 83.2466 329.462 83.3941H329.452Z" fill="#8E8F99"/>
<path d="M334.608 80.8107H333.803L332.285 87.6994H333.267L333.555 86.2194H334.894L335.182 87.6994H336.163L334.608 80.8107ZM333.702 85.2811L334.185 82.784H334.203L334.684 85.2811H333.702Z" fill="#8E8F99"/>
<path d="M340.95 84.9607H340.932L339.45 80.8107H338.506V87.6994H339.488V83.557H339.508L341.008 87.6994H341.931V80.8107H340.95V84.9607Z" fill="#8E8F99"/>
<path d="M346.948 80.8107L346.158 83.5494H346.138L345.349 80.8107H344.309L345.657 84.7878V87.6994H346.639V84.7878L347.987 80.8107H346.948Z" fill="#8E8F99"/>
<path d="M308 89.6445H308.473V90.9719H308.794V89.6445H309.265V89.3724H308V89.6445Z" fill="#8E8F99"/>
<path d="M311.977 89.3724L311.357 90.9719H311.698L311.83 90.6083H312.467L312.604 90.9719H312.953L312.318 89.3724H311.977ZM311.926 90.3387L312.144 89.7462L312.361 90.3387H311.926Z" fill="#8E8F99"/>
<path d="M315.908 90.3821H316.277V90.5881C316.169 90.6746 316.036 90.722 315.898 90.7229C315.833 90.7265 315.769 90.7145 315.71 90.688C315.651 90.6614 315.599 90.6211 315.559 90.5703C315.474 90.4485 315.432 90.3017 315.44 90.1533C315.44 89.7973 315.594 89.6193 315.9 89.6193C315.981 89.6112 316.062 89.6325 316.128 89.6791C316.194 89.7257 316.242 89.7947 316.262 89.8735L316.578 89.8125C316.51 89.4997 316.285 89.3421 315.9 89.3421C315.695 89.3366 315.495 89.4103 315.341 89.5481C315.261 89.6276 315.198 89.7239 315.159 89.8302C315.119 89.9365 315.103 90.0502 315.111 90.1634C315.102 90.3823 315.175 90.5966 315.316 90.7636C315.394 90.8444 315.489 90.9071 315.594 90.9475C315.699 90.9879 315.811 91.0049 315.923 90.9975C316.173 91.0045 316.417 90.9133 316.601 90.7432V90.1126H315.908V90.3821Z" fill="#8E8F99"/>
<path d="M319.923 89.3724H319.599V90.9719H320.719V90.6998H319.923V89.3724Z" fill="#8E8F99"/>
<path d="M323.317 89.3724H322.994V90.9719H323.317V89.3724Z" fill="#8E8F99"/>
<path d="M326.636 90.4405L325.981 89.3724H325.668V90.9719H325.969V89.9268L326.611 90.9719H326.932V89.3724H326.636V90.4405Z" fill="#8E8F99"/>
<path d="M329.637 90.2675H330.434V89.9954H329.637V89.6445H330.494V89.3724H329.313V90.9719H330.527V90.6998H329.637V90.2675Z" fill="#8E8F99"/>
<path d="M336.912 90.0031H336.282V89.3724H335.961V90.9719H336.282V90.2726H336.912V90.9719H337.234V89.3724H336.912V90.0031Z" fill="#8E8F99"/>
<path d="M339.93 90.2675H340.73V89.9954H339.93V89.6445H340.79V89.3724H339.609V90.9719H340.821V90.6998H339.93V90.2675Z" fill="#8E8F99"/>
<path d="M344.023 90.2676C344.302 90.2244 344.443 90.0769 344.443 89.8226C344.451 89.7546 344.441 89.6856 344.413 89.623C344.386 89.5603 344.342 89.5063 344.286 89.4666C344.141 89.3938 343.98 89.3614 343.818 89.3725H343.14V90.972H343.462V90.3032H343.525C343.593 90.299 343.662 90.3112 343.725 90.3388C343.772 90.3678 343.811 90.4079 343.839 90.4558L344.188 90.9644H344.572L344.377 90.6516C344.291 90.4972 344.17 90.3656 344.023 90.2676ZM343.699 90.0464H343.462V89.6446H343.715C343.825 89.6357 343.936 89.6486 344.041 89.6827C344.064 89.7034 344.083 89.7291 344.095 89.7579C344.107 89.7867 344.113 89.8179 344.111 89.8492C344.11 89.8804 344.101 89.911 344.087 89.9385C344.072 89.966 344.051 89.9899 344.026 90.0082C343.92 90.0406 343.81 90.0535 343.699 90.0464Z" fill="#8E8F99"/>
<path d="M347.11 90.2675H347.906V89.9954H347.11V89.6445H347.97V89.3724H346.786V90.9719H348V90.6998H347.11V90.2675Z" fill="#8E8F99"/>
<rect x="243.5" y="128.5" width="167" height="87" rx="3.5" stroke="#404BBF"/>
<path fill-rule="evenodd" clip-rule="evenodd" d="M325.114 149.935H324.977C324.767 149.922 324.557 149.917 324.347 149.912H324.347H324.327H323.892C323.495 149.912 323.09 149.922 322.688 149.942C322.657 149.94 322.627 149.94 322.597 149.942C318.952 150.149 315.382 151.06 312.08 152.625L311.648 152.833V174.975L312.66 174.631C313.548 174.326 314.494 174.051 315.473 173.797C318.119 173.118 320.837 172.757 323.568 172.722V175.631C323.206 175.633 322.855 175.643 322.503 175.661H322.419C320.318 175.776 318.232 176.097 316.191 176.617C313.607 177.264 311.114 178.236 308.772 179.509V151.112C311.205 149.693 313.825 148.627 316.556 147.946C318.953 147.327 321.417 147.009 323.892 147H324.319C324.83 147.013 325.329 147.036 325.797 147.071C327.03 147.158 328.253 147.353 329.452 147.654V150.517C328.287 150.246 327.103 150.067 325.91 149.983C325.886 149.981 325.862 149.979 325.838 149.977C325.591 149.956 325.344 149.935 325.114 149.935ZM330.153 152.861C330.788 152.91 331.445 152.933 332.111 152.933C334.713 152.923 337.303 152.591 339.824 151.943C342.407 151.294 344.899 150.322 347.241 149.05V176.94C344.807 178.358 342.185 179.424 339.455 180.106C337.057 180.723 334.593 181.04 332.118 181.05C330.243 181.065 328.374 180.844 326.553 180.393V152.322C326.983 152.421 327.426 152.513 327.876 152.589C328.615 152.714 329.394 152.805 330.153 152.861ZM344.347 153.078L343.335 153.418C342.404 153.731 341.466 154.011 340.522 154.26C337.775 154.966 334.951 155.328 332.116 155.338C331.456 155.338 330.848 155.32 330.262 155.282L329.455 155.229V175.318V178.006L330.148 178.067C330.79 178.123 331.453 178.151 332.121 178.151C334.354 178.141 336.578 177.853 338.741 177.294C340.522 176.847 342.255 176.224 343.914 175.435L344.347 175.226V153.078Z" fill="#404BBF"/>
<path d="M310.737 189.212C310.592 189.062 310.416 188.943 310.222 188.865C310.028 188.786 309.82 188.75 309.611 188.757C309.389 188.754 309.168 188.796 308.961 188.879C308.772 188.955 308.6 189.068 308.455 189.212C308.312 189.357 308.201 189.53 308.129 189.721C308.05 189.921 308.01 190.134 308.013 190.349V194.143C308.004 194.41 308.055 194.676 308.162 194.921C308.251 195.116 308.381 195.289 308.541 195.43C308.693 195.557 308.871 195.65 309.062 195.699C309.247 195.751 309.438 195.778 309.629 195.778C309.84 195.78 310.05 195.735 310.241 195.646C310.431 195.563 310.603 195.444 310.747 195.295C310.888 195.148 311.001 194.975 311.079 194.786C311.16 194.595 311.201 194.389 311.2 194.181V193.757H310.208V194.095C310.211 194.21 310.192 194.325 310.15 194.433C310.118 194.514 310.069 194.587 310.006 194.647C309.945 194.696 309.874 194.733 309.799 194.756C309.732 194.778 309.662 194.79 309.591 194.792C309.503 194.802 309.413 194.788 309.331 194.753C309.249 194.717 309.179 194.66 309.126 194.588C309.032 194.436 308.986 194.258 308.994 194.08V190.542C308.988 190.346 309.03 190.151 309.116 189.975C309.167 189.895 309.24 189.831 309.326 189.791C309.412 189.75 309.507 189.735 309.601 189.746C309.687 189.743 309.772 189.761 309.849 189.798C309.926 189.836 309.993 189.891 310.044 189.96C310.155 190.106 310.213 190.285 310.208 190.469V190.797H311.19V190.41C311.192 190.183 311.151 189.958 311.069 189.746C310.995 189.548 310.883 189.366 310.737 189.212Z" fill="#404BBF"/>
<path d="M316.629 189.169C316.313 188.902 315.914 188.755 315.501 188.752C315.299 188.753 315.098 188.789 314.909 188.859C314.716 188.928 314.538 189.033 314.385 189.169C314.221 189.317 314.09 189.498 314.001 189.701C313.901 189.932 313.851 190.183 313.856 190.435V194.074C313.85 194.33 313.899 194.585 314.001 194.819C314.09 195.015 314.222 195.189 314.385 195.328C314.537 195.469 314.715 195.578 314.909 195.648C315.098 195.718 315.299 195.754 315.501 195.755C315.703 195.755 315.903 195.719 316.093 195.648C316.29 195.577 316.472 195.468 316.629 195.328C316.787 195.186 316.915 195.013 317.003 194.819C317.105 194.585 317.154 194.33 317.148 194.074V190.435C317.152 190.183 317.103 189.932 317.003 189.701C316.915 189.5 316.788 189.319 316.629 189.169ZM316.166 194.074C316.174 194.171 316.161 194.269 316.127 194.36C316.093 194.451 316.039 194.533 315.969 194.601C315.838 194.711 315.673 194.771 315.502 194.771C315.331 194.771 315.166 194.711 315.035 194.601C314.965 194.533 314.911 194.451 314.877 194.36C314.843 194.269 314.83 194.171 314.838 194.074V190.435C314.83 190.338 314.843 190.241 314.877 190.15C314.911 190.059 314.965 189.976 315.035 189.909C315.166 189.799 315.331 189.739 315.502 189.739C315.673 189.739 315.838 189.799 315.969 189.909C316.039 189.976 316.093 190.059 316.127 190.15C316.161 190.241 316.174 190.338 316.166 190.435V194.074Z" fill="#404BBF"/>
<path d="M324.367 195.699V188.811H323.414L322.161 192.457H322.144L320.881 188.811H319.938V195.699H320.922V191.509H320.94L321.903 194.471H322.394L323.366 191.509H323.383V195.699H324.367Z" fill="#404BBF"/>
<path d="M329.958 189.294C329.807 189.124 329.615 188.994 329.402 188.917C329.171 188.842 328.93 188.806 328.688 188.811H327.226V195.699H328.207V193.009H328.713C329.02 193.023 329.324 192.958 329.599 192.821C329.822 192.697 330.008 192.515 330.138 192.294C330.251 192.111 330.328 191.907 330.363 191.694C330.401 191.435 330.419 191.173 330.416 190.911C330.425 190.58 330.393 190.249 330.32 189.927C330.254 189.688 330.13 189.471 329.958 189.294ZM329.452 191.394C329.448 191.519 329.417 191.641 329.361 191.753C329.305 191.859 329.216 191.943 329.108 191.994C328.963 192.059 328.804 192.089 328.645 192.081H328.197V189.739H328.703C328.856 189.731 329.008 189.761 329.146 189.825C329.248 189.883 329.328 189.972 329.376 190.079C329.43 190.2 329.459 190.331 329.462 190.463C329.462 190.608 329.462 190.761 329.462 190.921C329.462 191.081 329.472 191.247 329.462 191.394H329.452Z" fill="#404BBF"/>
<path d="M334.608 188.811H333.803L332.285 195.699H333.267L333.555 194.219H334.894L335.182 195.699H336.163L334.608 188.811ZM333.702 193.281L334.185 190.784H334.203L334.684 193.281H333.702Z" fill="#404BBF"/>
<path d="M340.95 192.961H340.932L339.45 188.811H338.506V195.699H339.488V191.557H339.508L341.008 195.699H341.931V188.811H340.95V192.961Z" fill="#404BBF"/>
<path d="M346.948 188.811L346.158 191.549H346.138L345.349 188.811H344.309L345.657 192.788V195.699H346.639V192.788L347.987 188.811H346.948Z" fill="#404BBF"/>
<path d="M308 197.645H308.473V198.972H308.794V197.645H309.265V197.372H308V197.645Z" fill="#404BBF"/>
<path d="M311.977 197.372L311.357 198.972H311.698L311.83 198.608H312.467L312.604 198.972H312.953L312.318 197.372H311.977ZM311.926 198.339L312.144 197.746L312.361 198.339H311.926Z" fill="#404BBF"/>
<path d="M315.908 198.382H316.277V198.588C316.169 198.675 316.036 198.722 315.898 198.723C315.833 198.726 315.769 198.715 315.71 198.688C315.651 198.661 315.599 198.621 315.559 198.57C315.474 198.449 315.432 198.302 315.44 198.153C315.44 197.797 315.594 197.619 315.9 197.619C315.981 197.611 316.062 197.632 316.128 197.679C316.194 197.726 316.242 197.795 316.262 197.874L316.578 197.813C316.51 197.5 316.285 197.342 315.9 197.342C315.695 197.337 315.495 197.41 315.341 197.548C315.261 197.628 315.198 197.724 315.159 197.83C315.119 197.936 315.103 198.05 315.111 198.163C315.102 198.382 315.175 198.597 315.316 198.764C315.394 198.844 315.489 198.907 315.594 198.947C315.699 198.988 315.811 199.005 315.923 198.998C316.173 199.004 316.417 198.913 316.601 198.743V198.113H315.908V198.382Z" fill="#404BBF"/>
<path d="M319.923 197.372H319.599V198.972H320.719V198.7H319.923V197.372Z" fill="#404BBF"/>
<path d="M323.317 197.372H322.994V198.972H323.317V197.372Z" fill="#404BBF"/>
<path d="M326.636 198.44L325.981 197.372H325.668V198.972H325.969V197.927L326.611 198.972H326.932V197.372H326.636V198.44Z" fill="#404BBF"/>
<path d="M329.637 198.268H330.434V197.995H329.637V197.645H330.494V197.372H329.313V198.972H330.527V198.7H329.637V198.268Z" fill="#404BBF"/>
<path d="M336.912 198.003H336.282V197.372H335.961V198.972H336.282V198.273H336.912V198.972H337.234V197.372H336.912V198.003Z" fill="#404BBF"/>
<path d="M339.93 198.268H340.73V197.995H339.93V197.645H340.79V197.372H339.609V198.972H340.821V198.7H339.93V198.268Z" fill="#404BBF"/>
<path d="M344.023 198.268C344.302 198.224 344.443 198.077 344.443 197.823C344.451 197.755 344.441 197.686 344.413 197.623C344.386 197.56 344.342 197.506 344.286 197.467C344.141 197.394 343.98 197.361 343.818 197.373H343.14V198.972H343.462V198.303H343.525C343.593 198.299 343.662 198.311 343.725 198.339C343.772 198.368 343.811 198.408 343.839 198.456L344.188 198.964H344.572L344.377 198.652C344.291 198.497 344.17 198.366 344.023 198.268ZM343.699 198.046H343.462V197.645H343.715C343.825 197.636 343.936 197.649 344.041 197.683C344.064 197.703 344.083 197.729 344.095 197.758C344.107 197.787 344.113 197.818 344.111 197.849C344.11 197.88 344.101 197.911 344.087 197.938C344.072 197.966 344.051 197.99 344.026 198.008C343.92 198.041 343.81 198.054 343.699 198.046Z" fill="#404BBF"/>
<path d="M347.11 198.268H347.906V197.995H347.11V197.645H347.97V197.372H346.786V198.972H348V198.7H347.11V198.268Z" fill="#404BBF"/>
<rect x="223.5" y="0.5" width="207" height="235" rx="4.5" stroke="#9747FF" stroke-dasharray="10 5"/>
<rect x="466.5" y="20.5" width="167" height="87" rx="3.5" stroke="#8E8F99"/>
<path d="M534.81 85.2233C534.826 85.2237 534.842 85.2268 534.856 85.2325C534.871 85.2381 534.884 85.2462 534.895 85.2563L535.116 85.4639C534.945 85.6319 534.733 85.7663 534.495 85.8578C534.217 85.9577 533.917 86.0059 533.615 85.9993C533.331 86.0043 533.049 85.9594 532.786 85.8672C532.55 85.7826 532.337 85.6555 532.163 85.4946C531.985 85.3276 531.848 85.1319 531.76 84.919C531.663 84.6817 531.616 84.4319 531.619 84.1807C531.615 83.9279 531.666 83.6767 531.771 83.44C531.867 83.2258 532.013 83.0301 532.199 82.8645C532.387 82.7021 532.612 82.5744 532.861 82.4894C533.133 82.3994 533.422 82.3545 533.714 82.3574C533.985 82.3517 534.254 82.3926 534.506 82.4777C534.725 82.5587 534.926 82.6712 535.1 82.8102L534.915 83.032C534.902 83.0476 534.886 83.0612 534.868 83.0721C534.846 83.0848 534.82 83.0907 534.793 83.0886C534.765 83.0869 534.737 83.0787 534.713 83.065L534.614 83.006L534.476 82.9305C534.416 82.9025 534.354 82.8781 534.291 82.8574C534.209 82.8324 534.125 82.8127 534.04 82.7984C533.931 82.7814 533.821 82.7735 533.711 82.7749C533.501 82.7726 533.293 82.8063 533.098 82.8739C532.917 82.9366 532.753 83.0315 532.618 83.1523C532.48 83.2808 532.374 83.4316 532.306 83.5957C532.228 83.7835 532.19 83.9815 532.193 84.1807C532.19 84.383 532.228 84.5842 532.306 84.7751C532.374 84.9379 532.478 85.0877 532.613 85.2162C532.739 85.336 532.896 85.4296 533.071 85.4898C533.251 85.5537 533.444 85.5858 533.639 85.5842C533.752 85.5857 533.865 85.5794 533.976 85.5653C534.158 85.5463 534.333 85.4923 534.487 85.4073C534.564 85.3637 534.637 85.3148 534.705 85.261C534.733 85.2379 534.771 85.2245 534.81 85.2233Z" fill="#8E8F99"/>
<path d="M541.186 84.1803C541.19 84.4305 541.139 84.6792 541.037 84.9138C540.947 85.1266 540.805 85.3207 540.621 85.4834C540.437 85.646 540.215 85.7734 539.969 85.8573C539.428 86.0334 538.831 86.0334 538.291 85.8573C538.046 85.7721 537.825 85.6444 537.642 85.4822C537.458 85.3167 537.315 85.1209 537.222 84.9067C537.024 84.4317 537.024 83.9124 537.222 83.4373C537.317 83.2231 537.459 83.0267 537.642 82.8595C537.827 82.7024 538.048 82.5796 538.291 82.4986C538.83 82.3193 539.429 82.3193 539.969 82.4986C540.214 82.5837 540.436 82.7114 540.62 82.8736C540.802 83.0376 540.944 83.2308 541.037 83.442C541.139 83.6782 541.19 83.9285 541.186 84.1803ZM540.607 84.1803C540.611 83.9801 540.575 83.7807 540.502 83.5906C540.44 83.4278 540.339 83.2777 540.206 83.1496C540.077 83.0284 539.918 82.9333 539.74 82.8713C539.347 82.7423 538.912 82.7423 538.52 82.8713C538.342 82.9333 538.183 83.0284 538.053 83.1496C537.918 83.2769 537.817 83.4272 537.755 83.5906C537.615 83.9746 537.615 84.386 537.755 84.7699C537.817 84.9331 537.919 85.0833 538.053 85.211C538.183 85.3315 538.342 85.4257 538.52 85.487C538.913 85.6126 539.346 85.6126 539.74 85.487C539.917 85.4257 540.077 85.3315 540.206 85.211C540.339 85.0826 540.439 84.9325 540.502 84.7699C540.576 84.5799 540.611 84.3805 540.607 84.1803Z" fill="#8E8F99"/>
<path d="M545.537 84.7987L545.594 84.9308C545.617 84.8836 545.636 84.8411 545.658 84.7987C545.679 84.7543 545.703 84.711 545.73 84.669L547.14 82.4781C547.168 82.4404 547.193 82.4168 547.22 82.4097C547.258 82.3999 547.297 82.396 547.336 82.3979H547.753V85.9613H547.259V83.3412C547.259 83.3082 547.259 83.2705 547.259 83.2304C547.256 83.1896 547.256 83.1486 547.259 83.1078L545.84 85.3293C545.822 85.3626 545.793 85.3907 545.757 85.4104C545.721 85.43 545.679 85.4404 545.636 85.4402H545.556C545.513 85.4407 545.471 85.4305 545.434 85.4108C545.398 85.3911 545.369 85.3628 545.352 85.3293L543.891 83.0936C543.891 83.1361 543.891 83.1785 543.891 83.221C543.891 83.2634 543.891 83.3012 543.891 83.3342V85.9543H543.414V82.3979H543.831C543.87 82.396 543.909 82.3999 543.947 82.4097C543.981 82.4242 544.008 82.4484 544.024 82.4781L545.465 84.6713C545.493 84.7119 545.517 84.7545 545.537 84.7987Z" fill="#8E8F99"/>
<path d="M550.845 84.6216V85.9564H550.293V82.3978H551.524C551.756 82.394 551.988 82.4202 552.211 82.4756C552.39 82.5189 552.555 82.5945 552.697 82.6973C552.819 82.7937 552.914 82.9132 552.973 83.0463C553.038 83.1915 553.07 83.346 553.067 83.5015C553.069 83.6575 553.034 83.8124 552.965 83.9566C552.898 84.0931 552.796 84.2149 552.667 84.3127C552.525 84.4198 552.358 84.5002 552.178 84.5485C551.963 84.6072 551.738 84.6351 551.513 84.6311L550.845 84.6216ZM550.845 84.2396H551.513C551.658 84.2412 551.802 84.2229 551.941 84.1854C552.055 84.1526 552.16 84.1004 552.25 84.0321C552.333 83.9668 552.397 83.8861 552.437 83.7962C552.483 83.7012 552.505 83.5993 552.504 83.4967C552.51 83.3978 552.491 83.2989 552.448 83.2068C552.405 83.1148 552.339 83.0318 552.255 82.9638C552.044 82.8231 551.779 82.755 551.513 82.7728H550.845V84.2396Z" fill="#8E8F99"/>
<path d="M558.264 85.9612H557.828C557.785 85.9627 557.742 85.951 557.707 85.9282C557.676 85.906 557.651 85.8777 557.635 85.8457L557.26 84.9848H555.374L554.985 85.8457C554.971 85.8771 554.947 85.9048 554.916 85.9258C554.881 85.95 554.837 85.9626 554.792 85.9612H554.356L556.012 82.3974H556.586L558.264 85.9612ZM555.532 84.6381H557.089L556.432 83.1875C556.381 83.0784 556.34 82.9665 556.307 82.8526L556.244 83.039C556.225 83.0956 556.203 83.1475 556.183 83.1899L555.532 84.6381Z" fill="#8E8F99"/>
<path d="M560.65 82.414C560.683 82.4295 560.711 82.4513 560.732 82.4777L563.148 85.1641C563.148 85.1216 563.148 85.0792 563.148 85.0391C563.148 84.999 563.148 84.9589 563.148 84.9211V82.3975H563.642V85.9612H563.366C563.327 85.9623 563.288 85.955 563.253 85.94C563.218 85.923 563.188 85.9006 563.164 85.874L560.752 83.19C560.754 83.2308 560.754 83.2718 560.752 83.3126C560.752 83.3527 560.752 83.3881 560.752 83.4211V85.9612H560.258V82.3975H560.55C560.584 82.3967 560.618 82.4023 560.65 82.414Z" fill="#8E8F99"/>
<path d="M567.71 84.5438V85.9589H567.158V84.5438L565.632 82.3975H566.126C566.169 82.3954 566.211 82.4062 566.245 82.4282C566.275 82.4511 566.3 82.4782 566.319 82.5084L567.274 83.8928C567.313 83.9518 567.346 84.006 567.374 84.0579C567.401 84.1098 567.423 84.1593 567.443 84.2089L567.514 84.0556C567.541 83.9995 567.573 83.9451 567.608 83.8928L568.55 82.4989C568.569 82.4711 568.593 82.4457 568.621 82.4235C568.654 82.399 568.697 82.3864 568.74 82.3881H569.24L567.71 84.5438Z" fill="#8E8F99"/>
<path d="M545.263 76.417C545.503 76.4429 545.746 76.4642 545.992 76.483C549.716 75.0595 552.867 72.7295 555.051 69.7844C557.234 66.8393 558.353 63.4097 558.267 59.9243L554.163 56.4172C554.997 60.1281 554.607 63.9642 553.035 67.4963C551.463 71.0284 548.772 74.1171 545.263 76.417Z" fill="#8E8F99"/>
<path d="M543.797 76.2538L543.908 76.2727C547.658 73.981 550.517 70.7808 552.115 67.086C553.713 63.3912 553.978 59.3716 552.873 55.5472L547.027 50.5521C549.392 54.6579 550.344 59.253 549.772 63.8028C549.2 68.3527 547.128 72.6704 543.797 76.2538Z" fill="#8E8F99"/>
<path d="M563.625 64.0424C562.632 67.872 560.219 71.3259 556.746 73.8911C555.732 74.6444 554.638 75.3156 553.478 75.8958C556.306 75.1856 558.906 73.9299 561.076 72.2256C563.246 70.5213 564.93 68.4139 565.996 66.0659L563.625 64.0424Z" fill="#8E8F99"/>
<path d="M562.695 63.4784L559.319 60.5941C559.254 63.8826 558.16 67.0963 556.15 69.9013C554.14 72.7063 551.287 75 547.888 76.5442H547.905C548.662 76.544 549.419 76.5054 550.171 76.4287C553.347 75.321 556.154 73.5587 558.339 71.299C560.524 69.0393 562.021 66.3525 562.695 63.4784Z" fill="#8E8F99"/>
<path d="M544.286 48.4457L540.259 45C536.658 46.1887 533.562 48.2784 531.375 50.9955C529.187 53.7127 528.011 56.9308 528 60.2285V60.2285C528.013 63.8725 529.449 67.4085 532.079 70.2769C534.71 73.1454 538.384 75.1824 542.522 76.0656C546.216 72.2205 548.379 67.4693 548.696 62.5023C549.013 57.5353 547.468 52.6113 544.286 48.4457Z" fill="#8E8F99"/>
<path d="M572 62.9478C571.985 58.6244 569.969 54.4817 566.391 51.4247C562.813 48.3676 557.964 46.6446 552.904 46.6322C550.566 46.6301 548.247 46.9988 546.067 47.7194L570.725 68.7872C571.569 66.9249 572.001 64.9449 572 62.9478Z" fill="#8E8F99"/>
<rect x="466.5" y="128.5" width="167" height="87" rx="3.5" stroke="#404BBF"/>
<path d="M534.81 193.223C534.826 193.224 534.842 193.227 534.856 193.232C534.871 193.238 534.884 193.246 534.895 193.256L535.116 193.464C534.945 193.632 534.733 193.766 534.495 193.858C534.217 193.958 533.917 194.006 533.615 193.999C533.331 194.004 533.049 193.959 532.786 193.867C532.55 193.783 532.337 193.656 532.163 193.495C531.985 193.328 531.848 193.132 531.76 192.919C531.663 192.682 531.616 192.432 531.619 192.181C531.615 191.928 531.666 191.677 531.771 191.44C531.867 191.226 532.013 191.03 532.199 190.864C532.387 190.702 532.612 190.574 532.861 190.489C533.133 190.399 533.422 190.355 533.714 190.357C533.985 190.352 534.254 190.393 534.506 190.478C534.725 190.559 534.926 190.671 535.1 190.81L534.915 191.032C534.902 191.048 534.886 191.061 534.868 191.072C534.846 191.085 534.82 191.091 534.793 191.089C534.765 191.087 534.737 191.079 534.713 191.065L534.614 191.006L534.476 190.931C534.416 190.903 534.354 190.878 534.291 190.857C534.209 190.832 534.125 190.813 534.04 190.798C533.931 190.781 533.821 190.773 533.711 190.775C533.501 190.773 533.293 190.806 533.098 190.874C532.917 190.937 532.753 191.031 532.618 191.152C532.48 191.281 532.374 191.432 532.306 191.596C532.228 191.783 532.19 191.982 532.193 192.181C532.19 192.383 532.228 192.584 532.306 192.775C532.374 192.938 532.478 193.088 532.613 193.216C532.739 193.336 532.896 193.43 533.071 193.49C533.251 193.554 533.444 193.586 533.639 193.584C533.752 193.586 533.865 193.579 533.976 193.565C534.158 193.546 534.333 193.492 534.487 193.407C534.564 193.364 534.637 193.315 534.705 193.261C534.733 193.238 534.771 193.224 534.81 193.223Z" fill="#404BBF"/>
<path d="M541.186 192.18C541.19 192.431 541.139 192.679 541.037 192.914C540.947 193.127 540.805 193.321 540.621 193.483C540.437 193.646 540.215 193.773 539.969 193.857C539.428 194.033 538.831 194.033 538.291 193.857C538.046 193.772 537.825 193.644 537.642 193.482C537.458 193.317 537.315 193.121 537.222 192.907C537.024 192.432 537.024 191.912 537.222 191.437C537.317 191.223 537.459 191.027 537.642 190.859C537.827 190.702 538.048 190.58 538.291 190.499C538.83 190.319 539.429 190.319 539.969 190.499C540.214 190.584 540.436 190.711 540.62 190.874C540.802 191.038 540.944 191.231 541.037 191.442C541.139 191.678 541.19 191.928 541.186 192.18ZM540.607 192.18C540.611 191.98 540.575 191.781 540.502 191.591C540.44 191.428 540.339 191.278 540.206 191.15C540.077 191.028 539.918 190.933 539.74 190.871C539.347 190.742 538.912 190.742 538.52 190.871C538.342 190.933 538.183 191.028 538.053 191.15C537.918 191.277 537.817 191.427 537.755 191.591C537.615 191.975 537.615 192.386 537.755 192.77C537.817 192.933 537.919 193.083 538.053 193.211C538.183 193.331 538.342 193.426 538.52 193.487C538.913 193.613 539.346 193.613 539.74 193.487C539.917 193.426 540.077 193.331 540.206 193.211C540.339 193.083 540.439 192.933 540.502 192.77C540.576 192.58 540.611 192.381 540.607 192.18Z" fill="#404BBF"/>
<path d="M545.537 192.799L545.594 192.931C545.617 192.884 545.636 192.841 545.658 192.799C545.679 192.754 545.703 192.711 545.73 192.669L547.14 190.478C547.168 190.44 547.193 190.417 547.22 190.41C547.258 190.4 547.297 190.396 547.336 190.398H547.753V193.961H547.259V191.341C547.259 191.308 547.259 191.27 547.259 191.23C547.256 191.19 547.256 191.149 547.259 191.108L545.84 193.329C545.822 193.363 545.793 193.391 545.757 193.41C545.721 193.43 545.679 193.44 545.636 193.44H545.556C545.513 193.441 545.471 193.43 545.434 193.411C545.398 193.391 545.369 193.363 545.352 193.329L543.891 191.094C543.891 191.136 543.891 191.179 543.891 191.221C543.891 191.263 543.891 191.301 543.891 191.334V193.954H543.414V190.398H543.831C543.87 190.396 543.909 190.4 543.947 190.41C543.981 190.424 544.008 190.448 544.024 190.478L545.465 192.671C545.493 192.712 545.517 192.754 545.537 192.799Z" fill="#404BBF"/>
<path d="M550.845 192.622V193.956H550.293V190.398H551.524C551.756 190.394 551.988 190.42 552.211 190.476C552.39 190.519 552.555 190.594 552.697 190.697C552.819 190.794 552.914 190.913 552.973 191.046C553.038 191.191 553.07 191.346 553.067 191.501C553.069 191.658 553.034 191.812 552.965 191.957C552.898 192.093 552.796 192.215 552.667 192.313C552.525 192.42 552.358 192.5 552.178 192.549C551.963 192.607 551.738 192.635 551.513 192.631L550.845 192.622ZM550.845 192.24H551.513C551.658 192.241 551.802 192.223 551.941 192.185C552.055 192.153 552.16 192.1 552.25 192.032C552.333 191.967 552.397 191.886 552.437 191.796C552.483 191.701 552.505 191.599 552.504 191.497C552.51 191.398 552.491 191.299 552.448 191.207C552.405 191.115 552.339 191.032 552.255 190.964C552.044 190.823 551.779 190.755 551.513 190.773H550.845V192.24Z" fill="#404BBF"/>
<path d="M558.264 193.961H557.828C557.785 193.963 557.742 193.951 557.707 193.928C557.676 193.906 557.651 193.878 557.635 193.846L557.26 192.985H555.374L554.985 193.846C554.971 193.877 554.947 193.905 554.916 193.926C554.881 193.95 554.837 193.963 554.792 193.961H554.356L556.012 190.397H556.586L558.264 193.961ZM555.532 192.638H557.089L556.432 191.188C556.381 191.078 556.34 190.967 556.307 190.853L556.244 191.039C556.225 191.096 556.203 191.147 556.183 191.19L555.532 192.638Z" fill="#404BBF"/>
<path d="M560.65 190.414C560.683 190.429 560.711 190.451 560.732 190.478L563.148 193.164C563.148 193.122 563.148 193.079 563.148 193.039C563.148 192.999 563.148 192.959 563.148 192.921V190.398H563.642V193.961H563.366C563.327 193.962 563.288 193.955 563.253 193.94C563.218 193.923 563.188 193.901 563.164 193.874L560.752 191.19C560.754 191.231 560.754 191.272 560.752 191.313C560.752 191.353 560.752 191.388 560.752 191.421V193.961H560.258V190.398H560.55C560.584 190.397 560.618 190.402 560.65 190.414Z" fill="#404BBF"/>
<path d="M567.71 192.544V193.959H567.158V192.544L565.632 190.398H566.126C566.169 190.395 566.211 190.406 566.245 190.428C566.275 190.451 566.3 190.478 566.319 190.508L567.274 191.893C567.313 191.952 567.346 192.006 567.374 192.058C567.401 192.11 567.423 192.159 567.443 192.209L567.514 192.056C567.541 192 567.573 191.945 567.608 191.893L568.55 190.499C568.569 190.471 568.593 190.446 568.621 190.423C568.654 190.399 568.697 190.386 568.74 190.388H569.24L567.71 192.544Z" fill="#404BBF"/>
<path d="M545.263 184.417C545.503 184.443 545.746 184.464 545.992 184.483C549.716 183.059 552.867 180.729 555.051 177.784C557.234 174.839 558.353 171.41 558.267 167.924L554.163 164.417C554.997 168.128 554.607 171.964 553.035 175.496C551.463 179.028 548.772 182.117 545.263 184.417Z" fill="#404BBF"/>
<path d="M543.797 184.254L543.908 184.273C547.658 181.981 550.517 178.781 552.115 175.086C553.713 171.391 553.978 167.372 552.873 163.547L547.027 158.552C549.392 162.658 550.344 167.253 549.772 171.803C549.2 176.353 547.128 180.67 543.797 184.254Z" fill="#404BBF"/>
<path d="M563.625 172.042C562.632 175.872 560.219 179.326 556.746 181.891C555.732 182.644 554.638 183.316 553.478 183.896C556.306 183.186 558.906 181.93 561.076 180.226C563.246 178.521 564.93 176.414 565.996 174.066L563.625 172.042Z" fill="#404BBF"/>
<path d="M562.695 171.478L559.319 168.594C559.254 171.883 558.16 175.096 556.15 177.901C554.14 180.706 551.287 183 547.888 184.544H547.905C548.662 184.544 549.419 184.505 550.171 184.429C553.347 183.321 556.154 181.559 558.339 179.299C560.524 177.039 562.021 174.353 562.695 171.478Z" fill="#404BBF"/>
<path d="M544.286 156.446L540.259 153C536.658 154.189 533.562 156.278 531.375 158.996C529.187 161.713 528.011 164.931 528 168.229V168.229C528.013 171.872 529.449 175.409 532.079 178.277C534.71 181.145 538.384 183.182 542.522 184.066C546.216 180.221 548.379 175.469 548.696 170.502C549.013 165.535 547.468 160.611 544.286 156.446Z" fill="#404BBF"/>
<path d="M572 170.948C571.985 166.624 569.969 162.482 566.391 159.425C562.813 156.368 557.964 154.645 552.904 154.632C550.566 154.63 548.247 154.999 546.067 155.719L570.725 176.787C571.569 174.925 572.001 172.945 572 170.948Z" fill="#404BBF"/>
<rect x="446.5" y="0.5" width="207" height="235" rx="4.5" stroke="#9747FF" stroke-dasharray="10 5"/>
<rect x="243.5" y="284.5" width="167" height="87" rx="3.5" stroke="#8E8F99"/>
<path d="M301.792 344.373C302.037 344.647 302.168 344.989 302.161 345.341C302.174 345.57 302.129 345.799 302.03 346.011C301.931 346.222 301.78 346.411 301.589 346.563C301.112 346.887 300.521 347.046 299.925 347.009H297V340.877H299.865C300.431 340.843 300.992 340.987 301.452 341.284C301.637 341.424 301.784 341.6 301.88 341.799C301.977 341.998 302.021 342.215 302.008 342.432C302.025 342.77 301.907 343.103 301.675 343.369C301.453 343.613 301.146 343.782 300.804 343.849C301.192 343.913 301.542 344.098 301.792 344.373ZM298.361 343.447H299.586C299.864 343.466 300.14 343.394 300.364 343.244C300.456 343.169 300.528 343.076 300.573 342.972C300.619 342.868 300.637 342.756 300.627 342.644C300.636 342.534 300.617 342.422 300.572 342.319C300.527 342.215 300.457 342.122 300.368 342.045C300.137 341.891 299.852 341.818 299.566 341.839H298.361V343.447ZM300.484 345.799C300.582 345.722 300.66 345.626 300.71 345.518C300.76 345.41 300.782 345.293 300.774 345.176C300.781 345.058 300.758 344.939 300.707 344.83C300.656 344.721 300.577 344.624 300.477 344.547C300.238 344.387 299.943 344.308 299.646 344.325H298.361V346.012H299.662C299.955 346.027 300.245 345.952 300.484 345.799Z" fill="#8E8F99"/>
<path d="M307.649 347.009L306.055 344.613H305.456V347.009H304.085V340.877H306.68C307.335 340.836 307.981 341.022 308.487 341.398C308.85 341.731 309.069 342.17 309.104 342.635C309.14 343.1 308.989 343.561 308.68 343.936C308.36 344.266 307.923 344.486 307.442 344.559L309.139 347.009H307.649ZM305.456 343.777H306.577C307.356 343.777 307.745 343.467 307.745 342.848C307.753 342.722 307.732 342.595 307.683 342.477C307.633 342.358 307.557 342.25 307.459 342.159C307.213 341.975 306.896 341.886 306.577 341.91H305.442L305.456 343.777Z" fill="#8E8F99"/>
<path d="M315.143 345.775H312.411L311.928 347.009H310.49L313 340.946H314.554L317.053 347.009H315.615L315.143 345.775ZM314.777 344.846L313.778 342.258L312.78 344.846H314.777Z" fill="#8E8F99"/>
<path d="M324.523 347.009H323.162L320.111 342.839V347.009H318.753V340.877H320.111L323.162 345.071V340.877H324.523V347.009Z" fill="#8E8F99"/>
<path d="M332.29 345.541C332.009 346.004 331.58 346.381 331.059 346.623C330.467 346.892 329.809 347.025 329.146 347.009H326.723V340.877H329.146C329.808 340.861 330.465 340.991 331.059 341.254C331.58 341.491 332.009 341.864 332.29 342.324C332.57 342.823 332.716 343.374 332.716 343.933C332.716 344.492 332.57 345.043 332.29 345.541ZM330.733 345.395C331.121 344.987 331.335 344.468 331.335 343.931C331.335 343.394 331.121 342.875 330.733 342.468C330.263 342.099 329.651 341.911 329.029 341.946H328.084V345.916H329.029C329.651 345.951 330.263 345.764 330.733 345.395Z" fill="#8E8F99"/>
<path d="M315.995 306.767C315.995 306.767 333.561 312.737 333.189 321.377V335.991C333.189 335.991 315.635 330.017 316.001 321.377L315.995 306.767Z" fill="#8E8F99"/>
<path d="M348.839 332.569C352.157 330.514 355.994 329.241 360 328.867V324.292C355.384 325.894 351.469 328.797 348.839 332.569Z" fill="#8E8F99"/>
<path d="M346.846 333.948C349.561 329.025 354.269 325.227 360 323.334V310.152C360 310.152 334.982 318.657 335.511 330.961V351.767C335.511 351.767 336.626 351.386 338.38 350.673C338.38 350.008 338.38 349.337 338.46 348.663C338.978 342.951 341.994 337.658 346.846 333.948Z" fill="#8E8F99"/>
<path d="M344.466 341.677C344.598 340.234 344.891 338.807 345.342 337.417C342.321 340.621 340.491 344.597 340.11 348.786C340.074 349.181 340.054 349.577 340.044 349.984C341.465 349.37 343.119 348.603 344.856 347.701C344.412 345.72 344.281 343.692 344.466 341.677Z" fill="#8E8F99"/>
<path d="M345.461 341.752C345.295 343.575 345.399 345.409 345.771 347.207C352.606 343.525 360.286 337.836 359.99 330.961V330.362C355.107 330.854 350.538 332.776 346.985 335.832C346.154 337.726 345.64 339.721 345.461 341.752Z" fill="#8E8F99"/>
<rect x="243.5" y="392.5" width="167" height="87" rx="3.5" stroke="#404BBF"/>
<path d="M301.792 452.373C302.037 452.647 302.168 452.989 302.161 453.341C302.174 453.57 302.129 453.799 302.03 454.011C301.931 454.222 301.78 454.411 301.589 454.563C301.112 454.887 300.521 455.046 299.925 455.009H297V448.877H299.865C300.431 448.843 300.992 448.987 301.452 449.284C301.637 449.424 301.784 449.6 301.88 449.799C301.977 449.998 302.021 450.215 302.008 450.432C302.025 450.77 301.907 451.103 301.675 451.369C301.453 451.613 301.146 451.782 300.804 451.849C301.192 451.913 301.542 452.098 301.792 452.373ZM298.361 451.447H299.586C299.864 451.466 300.14 451.394 300.364 451.244C300.456 451.169 300.528 451.076 300.573 450.972C300.619 450.868 300.637 450.756 300.627 450.644C300.636 450.534 300.617 450.422 300.572 450.319C300.527 450.215 300.457 450.122 300.368 450.045C300.137 449.891 299.852 449.818 299.566 449.839H298.361V451.447ZM300.484 453.799C300.582 453.722 300.66 453.626 300.71 453.518C300.76 453.41 300.782 453.293 300.774 453.176C300.781 453.058 300.758 452.939 300.707 452.83C300.656 452.721 300.577 452.624 300.477 452.547C300.238 452.387 299.943 452.308 299.646 452.325H298.361V454.012H299.662C299.955 454.027 300.245 453.952 300.484 453.799Z" fill="#404BBF"/>
<path d="M307.649 455.009L306.055 452.613H305.456V455.009H304.085V448.877H306.68C307.335 448.836 307.981 449.022 308.487 449.398C308.85 449.731 309.069 450.17 309.104 450.635C309.14 451.1 308.989 451.561 308.68 451.936C308.36 452.266 307.923 452.486 307.442 452.559L309.139 455.009H307.649ZM305.456 451.777H306.577C307.356 451.777 307.745 451.467 307.745 450.848C307.753 450.722 307.732 450.595 307.683 450.477C307.633 450.358 307.557 450.25 307.459 450.159C307.213 449.975 306.896 449.886 306.577 449.91H305.442L305.456 451.777Z" fill="#404BBF"/>
<path d="M315.143 453.775H312.411L311.928 455.009H310.49L313 448.946H314.554L317.053 455.009H315.615L315.143 453.775ZM314.777 452.846L313.778 450.258L312.78 452.846H314.777Z" fill="#404BBF"/>
<path d="M324.523 455.009H323.162L320.111 450.839V455.009H318.753V448.877H320.111L323.162 453.071V448.877H324.523V455.009Z" fill="#404BBF"/>
<path d="M332.29 453.541C332.009 454.004 331.58 454.381 331.059 454.623C330.467 454.892 329.809 455.025 329.146 455.009H326.723V448.877H329.146C329.808 448.861 330.465 448.991 331.059 449.254C331.58 449.491 332.009 449.864 332.29 450.324C332.57 450.823 332.716 451.374 332.716 451.933C332.716 452.492 332.57 453.043 332.29 453.541ZM330.733 453.395C331.121 452.987 331.335 452.468 331.335 451.931C331.335 451.394 331.121 450.875 330.733 450.468C330.263 450.099 329.651 449.911 329.029 449.946H328.084V453.916H329.029C329.651 453.951 330.263 453.764 330.733 453.395Z" fill="#404BBF"/>
<path d="M315.995 414.767C315.995 414.767 333.561 420.737 333.189 429.377V443.991C333.189 443.991 315.635 438.017 316.001 429.377L315.995 414.767Z" fill="#404BBF"/>
<path d="M348.839 440.569C352.157 438.514 355.994 437.241 360 436.867V432.292C355.384 433.894 351.469 436.797 348.839 440.569Z" fill="#404BBF"/>
<path d="M346.846 441.948C349.561 437.025 354.269 433.227 360 431.334V418.152C360 418.152 334.982 426.657 335.511 438.961V459.767C335.511 459.767 336.626 459.386 338.38 458.673C338.38 458.008 338.38 457.337 338.46 456.663C338.978 450.951 341.994 445.658 346.846 441.948Z" fill="#404BBF"/>
<path d="M344.466 449.677C344.598 448.234 344.891 446.807 345.342 445.417C342.321 448.621 340.491 452.597 340.11 456.786C340.074 457.181 340.054 457.577 340.044 457.984C341.465 457.37 343.119 456.603 344.856 455.701C344.412 453.72 344.281 451.692 344.466 449.677Z" fill="#404BBF"/>
<path d="M345.461 449.752C345.295 451.574 345.399 453.409 345.771 455.207C352.606 451.525 360.286 445.836 359.99 438.961V438.362C355.107 438.854 350.538 440.775 346.985 443.832C346.154 445.726 345.64 447.721 345.461 449.752Z" fill="#404BBF"/>
<rect x="223.5" y="264.5" width="207" height="235" rx="4.5" stroke="#9747FF" stroke-dasharray="10 5"/>
<rect x="466.5" y="284.5" width="167" height="87" rx="3.5" stroke="#8E8F99"/>
<path d="M551.529 327.443C551.085 326.852 550.873 326.154 550.923 325.451V322.563C550.923 321.678 551.124 321.005 551.526 320.545C551.928 320.084 552.618 319.855 553.596 319.857C554.515 319.857 555.168 320.053 555.554 320.445C555.975 320.945 556.179 321.556 556.133 322.172V322.851H554.488V322.164C554.494 321.939 554.478 321.713 554.44 321.491C554.417 321.338 554.334 321.198 554.205 321.091C554.037 320.976 553.824 320.921 553.61 320.935C553.384 320.921 553.161 320.98 552.983 321.1C552.84 321.218 552.744 321.372 552.711 321.541C552.664 321.776 552.642 322.015 552.646 322.255V325.76C552.62 326.098 552.693 326.436 552.857 326.744C552.939 326.848 553.053 326.931 553.185 326.982C553.318 327.034 553.465 327.053 553.61 327.038C553.82 327.053 554.029 326.996 554.192 326.879C554.326 326.764 554.412 326.615 554.437 326.453C554.475 326.221 554.492 325.986 554.488 325.751V325.04H556.133V325.689C556.179 326.332 555.979 326.97 555.564 327.505C555.186 327.934 554.543 328.148 553.596 328.148C552.649 328.148 551.935 327.919 551.529 327.443Z" fill="#8E8F99"/>
<path d="M558.376 327.473C557.961 327.023 557.753 326.368 557.753 325.501V322.463C557.753 321.605 557.961 320.956 558.376 320.515C558.792 320.075 559.486 319.855 560.46 319.857C561.427 319.857 562.118 320.077 562.533 320.515C562.949 320.956 563.16 321.605 563.16 322.463V325.501C563.16 326.359 562.949 327.017 562.527 327.47C562.104 327.922 561.417 328.148 560.46 328.148C559.503 328.148 558.795 327.919 558.376 327.473ZM561.226 326.744C561.375 326.462 561.443 326.154 561.424 325.845V322.125C561.443 321.822 561.376 321.52 561.229 321.244C561.146 321.138 561.03 321.054 560.894 321.002C560.758 320.95 560.607 320.932 560.46 320.95C560.312 320.932 560.162 320.95 560.025 321.002C559.889 321.054 559.772 321.138 559.687 321.244C559.537 321.519 559.47 321.822 559.49 322.125V325.863C559.469 326.172 559.537 326.48 559.687 326.762C559.783 326.856 559.901 326.932 560.034 326.984C560.167 327.036 560.311 327.063 560.457 327.063C560.602 327.063 560.746 327.036 560.879 326.984C561.012 326.932 561.13 326.856 561.226 326.762V326.744Z" fill="#8E8F99"/>
<path d="M565.138 319.946H566.908L568.239 325.551L569.601 319.946H571.324L571.498 328.036H570.224L570.088 322.414L568.774 328.036H567.753L566.391 322.393L566.265 328.036H564.978L565.138 319.946Z" fill="#8E8F99"/>
<path d="M573.483 319.946H576.241C577.829 319.946 578.624 320.712 578.624 322.243C578.624 323.71 577.787 324.443 576.115 324.441H575.175V328.036H573.473L573.483 319.946ZM575.839 323.404C576.007 323.422 576.178 323.409 576.34 323.365C576.501 323.32 576.65 323.247 576.775 323.148C576.97 322.875 577.056 322.554 577.02 322.234C577.029 321.988 577.002 321.741 576.939 321.5C576.914 321.42 576.872 321.344 576.813 321.278C576.755 321.212 576.682 321.157 576.598 321.115C576.362 321.017 576.101 320.973 575.839 320.986H575.178V323.404H575.839Z" fill="#8E8F99"/>
<path d="M581.079 319.946H582.907L584.783 328.036H583.196L582.825 326.171H581.194L580.813 328.036H579.203L581.079 319.946ZM582.641 325.234L582.005 321.838L581.368 325.234H582.641Z" fill="#8E8F99"/>
<path d="M586.298 319.946H587.49L589.771 324.561V319.946H591.184V328.036H590.05L587.755 323.219V328.036H586.295L586.298 319.946Z" fill="#8E8F99"/>
<path d="M594.493 324.952L592.597 319.957H594.194L595.351 323.165L596.437 319.957H598L596.127 324.952V328.036H594.493V324.952Z" fill="#8E8F99"/>
<path d="M554.158 331.574V331.997H552.769V335.284H552.187V331.997H550.791V331.574H554.158Z" fill="#8E8F99"/>
<path d="M558.512 335.284H558.063C558.017 335.287 557.972 335.274 557.937 335.249C557.903 335.228 557.877 335.198 557.862 335.164L557.46 334.283H555.533L555.131 335.164C555.12 335.201 555.099 335.235 555.07 335.264C555.035 335.288 554.99 335.301 554.944 335.299H554.495L556.197 331.589H556.79L558.512 335.284ZM555.693 333.907H557.3L556.619 332.397C556.569 332.282 556.527 332.166 556.493 332.047C556.469 332.118 556.449 332.185 556.429 332.244L556.367 332.4L555.693 333.907Z" fill="#8E8F99"/>
<path d="M561.447 334.92C561.554 334.925 561.661 334.925 561.767 334.92C561.859 334.912 561.95 334.897 562.04 334.876C562.123 334.858 562.205 334.836 562.285 334.808C562.36 334.782 562.435 334.75 562.513 334.717V333.883H561.832C561.815 333.884 561.798 333.882 561.782 333.876C561.767 333.871 561.752 333.864 561.74 333.854C561.729 333.845 561.72 333.835 561.714 333.823C561.708 333.811 561.705 333.799 561.706 333.786V333.501H563.027V334.923C562.919 334.99 562.805 335.049 562.687 335.099C562.565 335.151 562.439 335.193 562.309 335.226C562.169 335.261 562.027 335.287 561.883 335.302C561.718 335.318 561.552 335.326 561.386 335.326C561.092 335.328 560.801 335.281 560.528 335.187C560.273 335.099 560.041 334.967 559.847 334.8C559.657 334.63 559.508 334.431 559.408 334.212C559.3 333.966 559.247 333.705 559.251 333.442C559.248 333.178 559.3 332.915 559.404 332.667C559.502 332.447 559.652 332.247 559.844 332.079C560.038 331.912 560.27 331.781 560.525 331.694C560.816 331.599 561.126 331.552 561.437 331.556C561.595 331.556 561.754 331.567 561.91 331.588C562.049 331.608 562.184 331.639 562.315 331.682C562.435 331.721 562.549 331.77 562.656 331.829C562.76 331.887 562.859 331.952 562.952 332.023L562.789 332.252C562.776 332.273 562.757 332.291 562.733 332.303C562.71 332.316 562.683 332.322 562.656 332.323C562.618 332.322 562.582 332.312 562.55 332.293C562.499 332.27 562.445 332.24 562.383 332.205C562.311 332.166 562.235 332.133 562.155 332.105C562.054 332.07 561.949 332.043 561.842 332.023C561.7 332 561.555 331.99 561.41 331.991C561.185 331.989 560.962 332.023 560.753 332.094C560.563 332.159 560.392 332.259 560.252 332.387C560.111 332.521 560.003 332.678 559.936 332.849C559.783 333.251 559.783 333.684 559.936 334.086C560.01 334.26 560.126 334.419 560.276 334.553C560.416 334.68 560.585 334.78 560.773 334.847C560.99 334.911 561.219 334.936 561.447 334.92Z" fill="#8E8F99"/>
<path d="M566.874 334.861H568.733V335.284H566.306V331.574H566.888L566.874 334.861Z" fill="#8E8F99"/>
<path d="M570.667 335.284H570.085V331.574H570.667V335.284Z" fill="#8E8F99"/>
<path d="M572.833 331.591C572.867 331.608 572.897 331.631 572.921 331.659L575.41 334.456C575.406 334.412 575.406 334.368 575.41 334.324C575.41 334.282 575.41 334.241 575.41 334.203V331.559H575.917V335.284H575.624C575.581 335.287 575.537 335.28 575.498 335.264C575.463 335.245 575.432 335.221 575.406 335.193L572.921 332.399C572.921 332.443 572.921 332.484 572.921 332.526C572.921 332.567 572.921 332.605 572.921 332.64V335.284H572.434V331.574H572.737C572.77 331.574 572.803 331.58 572.833 331.591Z" fill="#8E8F99"/>
<path d="M580.204 331.574V331.982H578.14V333.207H579.812V333.601H578.14V334.867H580.204V335.275H577.541V331.574H580.204Z" fill="#8E8F99"/>
<path d="M519.195 308.659L545.047 314.993V337.188L519.195 330.857V308.659ZM517.537 306.767V331.935L546.702 339.083V313.917L517.537 306.767Z" fill="#8E8F99"/>
<path d="M533.168 350.767L504 343.613V318.447L533.168 325.598V350.767Z" fill="#8E8F99"/>
<path d="M518.021 308.374L543.535 314.628L532.684 323.994L507.166 317.736L518.021 308.374ZM517.537 306.767L504 318.447L533.168 325.598L546.702 313.917L517.537 306.767Z" fill="#8E8F99"/>
<path d="M534.809 349.351L546.702 339.086L534.809 336.169V349.351Z" fill="#8E8F99"/>
<rect x="466.5" y="392.5" width="167" height="87" rx="3.5" stroke="#404BBF"/>
<path d="M551.529 435.443C551.085 434.852 550.873 434.154 550.923 433.451V430.563C550.923 429.678 551.124 429.005 551.526 428.545C551.928 428.084 552.618 427.855 553.596 427.857C554.515 427.857 555.168 428.053 555.554 428.445C555.975 428.945 556.179 429.556 556.133 430.172V430.851H554.488V430.164C554.494 429.939 554.478 429.713 554.44 429.491C554.417 429.338 554.334 429.198 554.205 429.091C554.037 428.976 553.824 428.921 553.61 428.935C553.384 428.921 553.161 428.98 552.983 429.1C552.84 429.218 552.744 429.372 552.711 429.541C552.664 429.776 552.642 430.015 552.646 430.255V433.76C552.62 434.098 552.693 434.436 552.857 434.744C552.939 434.848 553.053 434.931 553.185 434.982C553.318 435.034 553.465 435.053 553.61 435.038C553.82 435.053 554.029 434.996 554.192 434.879C554.326 434.764 554.412 434.615 554.437 434.453C554.475 434.221 554.492 433.986 554.488 433.751V433.04H556.133V433.689C556.179 434.332 555.979 434.97 555.564 435.505C555.186 435.934 554.543 436.148 553.596 436.148C552.649 436.148 551.935 435.919 551.529 435.443Z" fill="#404BBF"/>
<path d="M558.376 435.473C557.961 435.023 557.753 434.368 557.753 433.501V430.463C557.753 429.605 557.961 428.956 558.376 428.515C558.792 428.075 559.486 427.855 560.46 427.857C561.427 427.857 562.118 428.077 562.533 428.515C562.949 428.956 563.16 429.605 563.16 430.463V433.501C563.16 434.359 562.949 435.017 562.527 435.47C562.104 435.922 561.417 436.148 560.46 436.148C559.503 436.148 558.795 435.919 558.376 435.473ZM561.226 434.744C561.375 434.462 561.443 434.154 561.424 433.845V430.125C561.443 429.822 561.376 429.52 561.229 429.244C561.146 429.138 561.03 429.054 560.894 429.002C560.758 428.95 560.607 428.932 560.46 428.95C560.312 428.932 560.162 428.95 560.025 429.002C559.889 429.054 559.772 429.138 559.687 429.244C559.537 429.519 559.47 429.822 559.49 430.125V433.863C559.469 434.172 559.537 434.48 559.687 434.762C559.783 434.856 559.901 434.932 560.034 434.984C560.167 435.036 560.311 435.063 560.457 435.063C560.602 435.063 560.746 435.036 560.879 434.984C561.012 434.932 561.13 434.856 561.226 434.762V434.744Z" fill="#404BBF"/>
<path d="M565.138 427.946H566.908L568.239 433.551L569.601 427.946H571.324L571.498 436.036H570.224L570.088 430.414L568.774 436.036H567.753L566.391 430.393L566.265 436.036H564.978L565.138 427.946Z" fill="#404BBF"/>
<path d="M573.483 427.946H576.241C577.829 427.946 578.624 428.712 578.624 430.243C578.624 431.71 577.787 432.443 576.115 432.441H575.175V436.036H573.473L573.483 427.946ZM575.839 431.404C576.007 431.422 576.178 431.409 576.34 431.365C576.501 431.32 576.65 431.247 576.775 431.148C576.97 430.875 577.056 430.554 577.02 430.234C577.029 429.988 577.002 429.741 576.939 429.5C576.914 429.42 576.872 429.344 576.813 429.278C576.755 429.212 576.682 429.157 576.598 429.115C576.362 429.017 576.101 428.973 575.839 428.986H575.178V431.404H575.839Z" fill="#404BBF"/>
<path d="M581.079 427.946H582.907L584.783 436.036H583.196L582.825 434.171H581.194L580.813 436.036H579.203L581.079 427.946ZM582.641 433.234L582.005 429.838L581.368 433.234H582.641Z" fill="#404BBF"/>
<path d="M586.298 427.946H587.49L589.771 432.561V427.946H591.184V436.036H590.05L587.755 431.219V436.036H586.295L586.298 427.946Z" fill="#404BBF"/>
<path d="M594.493 432.952L592.597 427.957H594.194L595.351 431.165L596.437 427.957H598L596.127 432.952V436.036H594.493V432.952Z" fill="#404BBF"/>
<path d="M554.158 439.574V439.997H552.769V443.284H552.187V439.997H550.791V439.574H554.158Z" fill="#404BBF"/>
<path d="M558.512 443.284H558.063C558.017 443.287 557.972 443.274 557.937 443.249C557.903 443.228 557.877 443.198 557.862 443.164L557.46 442.283H555.533L555.131 443.164C555.12 443.201 555.099 443.235 555.07 443.264C555.035 443.288 554.99 443.301 554.944 443.299H554.495L556.197 439.589H556.79L558.512 443.284ZM555.693 441.907H557.3L556.619 440.397C556.569 440.282 556.527 440.166 556.493 440.047C556.469 440.118 556.449 440.185 556.429 440.244L556.367 440.4L555.693 441.907Z" fill="#404BBF"/>
<path d="M561.447 442.92C561.554 442.925 561.661 442.925 561.767 442.92C561.859 442.912 561.95 442.897 562.04 442.876C562.123 442.858 562.205 442.836 562.285 442.808C562.36 442.782 562.435 442.75 562.513 442.717V441.883H561.832C561.815 441.884 561.798 441.882 561.782 441.876C561.767 441.871 561.752 441.864 561.74 441.854C561.729 441.845 561.72 441.835 561.714 441.823C561.708 441.811 561.705 441.799 561.706 441.786V441.501H563.027V442.923C562.919 442.99 562.805 443.049 562.687 443.099C562.565 443.151 562.439 443.193 562.309 443.226C562.169 443.261 562.027 443.287 561.883 443.302C561.718 443.318 561.552 443.326 561.386 443.326C561.092 443.328 560.801 443.281 560.528 443.187C560.273 443.099 560.041 442.967 559.847 442.8C559.657 442.63 559.508 442.431 559.408 442.212C559.3 441.966 559.247 441.705 559.251 441.442C559.248 441.178 559.3 440.915 559.404 440.666C559.502 440.447 559.652 440.247 559.844 440.079C560.038 439.912 560.27 439.781 560.525 439.694C560.816 439.599 561.126 439.552 561.437 439.556C561.595 439.556 561.754 439.567 561.91 439.588C562.049 439.608 562.184 439.639 562.315 439.682C562.435 439.721 562.549 439.77 562.656 439.829C562.76 439.887 562.859 439.952 562.952 440.023L562.789 440.252C562.776 440.273 562.757 440.291 562.733 440.303C562.71 440.316 562.683 440.322 562.656 440.323C562.618 440.322 562.582 440.311 562.55 440.293C562.499 440.27 562.445 440.24 562.383 440.205C562.311 440.166 562.235 440.133 562.155 440.105C562.054 440.07 561.949 440.043 561.842 440.023C561.7 440 561.555 439.99 561.41 439.991C561.185 439.989 560.962 440.023 560.753 440.094C560.563 440.159 560.392 440.259 560.252 440.387C560.111 440.521 560.003 440.678 559.936 440.849C559.783 441.251 559.783 441.684 559.936 442.086C560.01 442.26 560.126 442.419 560.276 442.553C560.416 442.68 560.585 442.78 560.773 442.847C560.99 442.911 561.219 442.936 561.447 442.92Z" fill="#404BBF"/>
<path d="M566.874 442.861H568.733V443.284H566.306V439.574H566.888L566.874 442.861Z" fill="#404BBF"/>
<path d="M570.667 443.284H570.085V439.574H570.667V443.284Z" fill="#404BBF"/>
<path d="M572.833 439.591C572.867 439.608 572.897 439.631 572.921 439.659L575.41 442.456C575.406 442.412 575.406 442.368 575.41 442.324C575.41 442.282 575.41 442.241 575.41 442.203V439.559H575.917V443.284H575.624C575.581 443.287 575.537 443.28 575.498 443.264C575.463 443.245 575.432 443.221 575.406 443.193L572.921 440.399C572.921 440.443 572.921 440.484 572.921 440.525C572.921 440.567 572.921 440.605 572.921 440.64V443.284H572.434V439.574H572.737C572.77 439.574 572.803 439.58 572.833 439.591Z" fill="#404BBF"/>
<path d="M580.204 439.574V439.982H578.14V441.207H579.812V441.601H578.14V442.867H580.204V443.275H577.541V439.574H580.204Z" fill="#404BBF"/>
<path d="M519.195 416.659L545.047 422.993V445.188L519.195 438.857V416.659ZM517.537 414.767V439.935L546.702 447.083V421.917L517.537 414.767Z" fill="#404BBF"/>
<path d="M533.168 458.767L504 451.613V426.447L533.168 433.598V458.767Z" fill="#404BBF"/>
<path d="M518.021 416.374L543.535 422.628L532.684 431.994L507.166 425.736L518.021 416.374ZM517.537 414.767L504 426.447L533.168 433.598L546.702 421.917L517.537 414.767Z" fill="#404BBF"/>
<path d="M534.809 457.351L546.702 447.086L534.809 444.169V457.351Z" fill="#404BBF"/>
<rect x="446.5" y="264.5" width="207" height="235" rx="4.5" stroke="#9747FF" stroke-dasharray="10 5"/>
<path d="M698 16C698 7.16344 705.163 0 714 0H1034C1042.84 0 1050 7.16344 1050 16V79H698V16Z" fill="white"/>
<path d="M944.355 43.6445H949.727C949.583 45.5456 949.056 47.2318 948.145 48.7031C947.233 50.1615 945.964 51.3073 944.336 52.1406C942.708 52.974 940.736 53.3906 938.418 53.3906C936.634 53.3906 935.026 53.0781 933.594 52.4531C932.174 51.8151 930.957 50.9102 929.941 49.7383C928.939 48.5534 928.171 47.1341 927.637 45.4805C927.103 43.8138 926.836 41.9453 926.836 39.875V37.707C926.836 35.6367 927.109 33.7682 927.656 32.1016C928.203 30.4349 928.984 29.0156 930 27.8438C931.029 26.6589 932.259 25.7474 933.691 25.1094C935.137 24.4714 936.751 24.1523 938.535 24.1523C940.853 24.1523 942.812 24.582 944.414 25.4414C946.016 26.2878 947.259 27.4531 948.145 28.9375C949.03 30.4219 949.564 32.1276 949.746 34.0547H944.375C944.271 32.8568 944.01 31.8411 943.594 31.0078C943.19 30.1745 942.578 29.543 941.758 29.1133C940.951 28.6706 939.876 28.4492 938.535 28.4492C937.493 28.4492 936.576 28.6445 935.781 29.0352C935 29.4258 934.349 30.0117 933.828 30.793C933.307 31.5612 932.917 32.5247 932.656 33.6836C932.396 34.8294 932.266 36.1576 932.266 37.668V39.875C932.266 41.3203 932.383 42.6159 932.617 43.7617C932.852 44.9076 933.216 45.8776 933.711 46.6719C934.206 47.4661 934.844 48.0716 935.625 48.4883C936.406 48.9049 937.337 49.1133 938.418 49.1133C939.733 49.1133 940.801 48.9049 941.621 48.4883C942.454 48.0716 943.086 47.4596 943.516 46.6523C943.958 45.8451 944.238 44.8424 944.355 43.6445ZM958.965 23V53H953.789V23H958.965ZM969.355 31.8672V53H964.18V31.8672H969.355ZM963.828 26.3398C963.828 25.5716 964.089 24.9336 964.609 24.4258C965.143 23.918 965.859 23.6641 966.758 23.6641C967.656 23.6641 968.366 23.918 968.887 24.4258C969.421 24.9336 969.688 25.5716 969.688 26.3398C969.688 27.0951 969.421 27.7266 968.887 28.2344C968.366 28.7422 967.656 28.9961 966.758 28.9961C965.859 28.9961 965.143 28.7422 964.609 28.2344C964.089 27.7266 963.828 27.0951 963.828 26.3398ZM983.77 53.3906C982.168 53.3906 980.729 53.1302 979.453 52.6094C978.177 52.0885 977.09 51.3659 976.191 50.4414C975.306 49.5039 974.622 48.4167 974.141 47.1797C973.672 45.9297 973.438 44.5885 973.438 43.1562V42.375C973.438 40.7474 973.672 39.2695 974.141 37.9414C974.609 36.6003 975.273 35.4479 976.133 34.4844C976.992 33.5208 978.021 32.7786 979.219 32.2578C980.417 31.737 981.738 31.4766 983.184 31.4766C984.681 31.4766 986.003 31.7305 987.148 32.2383C988.294 32.7331 989.251 33.4362 990.02 34.3477C990.788 35.2591 991.367 36.3529 991.758 37.6289C992.148 38.8919 992.344 40.2917 992.344 41.8281V43.9961H975.781V40.4414H987.266V40.0508C987.24 39.2305 987.083 38.4818 986.797 37.8047C986.51 37.1146 986.068 36.5677 985.469 36.1641C984.87 35.7474 984.095 35.5391 983.145 35.5391C982.376 35.5391 981.706 35.7083 981.133 36.0469C980.573 36.3724 980.104 36.8411 979.727 37.4531C979.362 38.0521 979.089 38.7682 978.906 39.6016C978.724 40.4349 978.633 41.3594 978.633 42.375V43.1562C978.633 44.0417 978.75 44.862 978.984 45.6172C979.232 46.3724 979.59 47.0299 980.059 47.5898C980.54 48.1367 981.113 48.5664 981.777 48.8789C982.454 49.1784 983.223 49.3281 984.082 49.3281C985.163 49.3281 986.139 49.1198 987.012 48.7031C987.897 48.2734 988.665 47.6419 989.316 46.8086L991.914 49.5039C991.471 50.1549 990.872 50.7799 990.117 51.3789C989.375 51.9779 988.477 52.4661 987.422 52.8438C986.367 53.2083 985.15 53.3906 983.77 53.3906ZM1000.86 36.3789V53H995.703V31.8672H1000.55L1000.86 36.3789ZM1000.04 41.6719H998.516C998.529 40.1354 998.737 38.7422 999.141 37.4922C999.544 36.2422 1000.11 35.168 1000.84 34.2695C1001.58 33.3711 1002.46 32.681 1003.48 32.1992C1004.49 31.7174 1005.62 31.4766 1006.88 31.4766C1007.89 31.4766 1008.81 31.6198 1009.63 31.9062C1010.45 32.1927 1011.15 32.6484 1011.74 33.2734C1012.34 33.8984 1012.79 34.7188 1013.11 35.7344C1013.43 36.737 1013.59 37.974 1013.59 39.4453V53H1008.4V39.4062C1008.4 38.4427 1008.26 37.681 1007.97 37.1211C1007.7 36.5612 1007.29 36.1641 1006.76 35.9297C1006.24 35.6953 1005.59 35.5781 1004.82 35.5781C1004.03 35.5781 1003.33 35.7409 1002.73 36.0664C1002.15 36.3789 1001.65 36.8151 1001.25 37.375C1000.86 37.9349 1000.56 38.5794 1000.35 39.3086C1000.14 40.0378 1000.04 40.8255 1000.04 41.6719ZM1028.14 31.8672V35.5781H1016.04V31.8672H1028.14ZM1019.28 26.6719H1024.45V46.9062C1024.45 47.5312 1024.54 48.013 1024.71 48.3516C1024.88 48.6901 1025.13 48.918 1025.47 49.0352C1025.81 49.1523 1026.21 49.2109 1026.68 49.2109C1027.02 49.2109 1027.33 49.1914 1027.62 49.1523C1027.9 49.1133 1028.14 49.0742 1028.34 49.0352L1028.36 52.9023C1027.93 53.0456 1027.44 53.1628 1026.89 53.2539C1026.36 53.3451 1025.76 53.3906 1025.08 53.3906C1023.92 53.3906 1022.9 53.1953 1022.03 52.8047C1021.16 52.401 1020.48 51.7565 1020 50.8711C1019.52 49.9727 1019.28 48.7878 1019.28 47.3164V26.6719ZM1043.2 47.2188C1043.2 46.776 1043.09 46.3789 1042.85 46.0273C1042.62 45.6758 1042.17 45.3568 1041.52 45.0703C1040.89 44.7708 1039.95 44.4909 1038.71 44.2305C1037.62 43.9961 1036.61 43.7031 1035.68 43.3516C1034.76 43 1033.96 42.5768 1033.3 42.082C1032.64 41.5742 1032.12 40.9818 1031.74 40.3047C1031.37 39.6146 1031.19 38.8203 1031.19 37.9219C1031.19 37.0495 1031.38 36.2292 1031.76 35.4609C1032.14 34.6797 1032.68 33.9961 1033.4 33.4102C1034.11 32.8112 1034.99 32.3424 1036.02 32.0039C1037.04 31.6523 1038.2 31.4766 1039.49 31.4766C1041.29 31.4766 1042.83 31.7695 1044.12 32.3555C1045.42 32.9414 1046.42 33.7487 1047.11 34.7773C1047.8 35.793 1048.14 36.9388 1048.14 38.2148H1042.99C1042.99 37.6549 1042.86 37.1471 1042.6 36.6914C1042.35 36.2357 1041.97 35.8711 1041.45 35.5977C1040.92 35.3112 1040.27 35.168 1039.47 35.168C1038.76 35.168 1038.15 35.2852 1037.66 35.5195C1037.17 35.7539 1036.81 36.0599 1036.56 36.4375C1036.32 36.8151 1036.19 37.2318 1036.19 37.6875C1036.19 38.026 1036.26 38.332 1036.39 38.6055C1036.53 38.8659 1036.76 39.1068 1037.07 39.3281C1037.38 39.5495 1037.81 39.7513 1038.34 39.9336C1038.89 40.1159 1039.56 40.2917 1040.35 40.4609C1041.93 40.7734 1043.3 41.1901 1044.47 41.7109C1045.66 42.2188 1046.58 42.8958 1047.25 43.7422C1047.91 44.5885 1048.24 45.6693 1048.24 46.9844C1048.24 47.9219 1048.04 48.7812 1047.64 49.5625C1047.23 50.3307 1046.65 51.0013 1045.88 51.5742C1045.11 52.1471 1044.19 52.5964 1043.12 52.9219C1042.06 53.2344 1040.85 53.3906 1039.51 53.3906C1037.57 53.3906 1035.93 53.0456 1034.59 52.3555C1033.25 51.6523 1032.23 50.7669 1031.54 49.6992C1030.85 48.6185 1030.51 47.4987 1030.51 46.3398H1035.45C1035.49 47.1602 1035.71 47.8177 1036.11 48.3125C1036.52 48.8073 1037.02 49.1654 1037.64 49.3867C1038.26 49.5951 1038.92 49.6992 1039.61 49.6992C1040.39 49.6992 1041.05 49.5951 1041.58 49.3867C1042.12 49.1654 1042.52 48.8724 1042.79 48.5078C1043.07 48.1302 1043.2 47.7005 1043.2 47.2188Z" fill="#2E2F42"/>
</svg>
