<svg xmlns="http://www.w3.org/2000/svg" width="61" height="32">
  <path d="M20.392 13.643h-.001c-.867 0-1.571.634-1.571 1.416v.001c0 .782.703 1.416 1.571 1.416h.001c.867 0 1.571-.634 1.571-1.416v-.001c0-.782-.703-1.416-1.571-1.416zm11.594-.453c-.002-1.086-.482-2.128-1.334-2.896s-2.007-1.201-3.212-1.203c-1.205.002-2.361.434-3.213 1.203s-1.332 1.81-1.335 2.896v5.991s9.092-.913 9.093-5.99v-.001zm-16.35 7.957c.002.756.336 1.48.929 2.015s1.396.836 2.234.838c.838-.002 1.641-.303 2.234-.838s.927-1.259.929-2.014V16.98s-6.327.636-6.327 4.167zm3.164.747c-.164 0-.324-.044-.46-.126s-.242-.199-.305-.335-.079-.287-.047-.432c.032-.145.111-.278.227-.382s.263-.176.424-.204c.161-.029.327-.014.479.043s.281.152.372.275a.694.694 0 0 1-.1.944l-.001.001c-.077.07-.168.125-.269.163s-.209.057-.318.057v-.003zm5.785-1.343v1.551h-.32v-1.551h.32zm.618.663v.249h-.705v-.249h.705zm.075-.663v.25h-.78v-.25h.78zm1.459.739v.074c0 .118-.016.224-.048.317s-.077.174-.135.24c-.058.065-.128.115-.209.15s-.169.052-.267.052c-.097 0-.186-.017-.267-.052s-.15-.085-.209-.15c-.059-.066-.105-.146-.137-.24s-.048-.2-.048-.317v-.074c0-.119.016-.224.048-.317s.077-.174.135-.24c.059-.066.129-.116.209-.151s.17-.052.267-.052c.098 0 .187.017.267.052s.151.085.209.151c.059.066.104.146.136.24s.049.199.049.317zm-.323.074v-.076c0-.082-.007-.155-.022-.217s-.037-.115-.066-.158-.065-.075-.107-.096c-.042-.022-.09-.033-.144-.033s-.102.011-.144.033c-.041.021-.076.053-.105.096s-.05.095-.065.158a.922.922 0 0 0-.022.203v.015-.001.076c0 .082.007.154.022.217s.037.115.066.159a.29.29 0 0 0 .242.13h.022a.279.279 0 0 0 .235-.129l.001-.001c.028-.043.05-.096.065-.159s.022-.136.022-.217zm1.361.332c0-.028-.004-.053-.013-.075s-.023-.043-.045-.062c-.022-.019-.053-.038-.093-.056s-.091-.038-.154-.058c-.07-.023-.137-.048-.2-.077s-.118-.061-.166-.099c-.048-.038-.085-.083-.113-.133s-.04-.109-.04-.176c0-.065.014-.123.043-.176s.068-.099.119-.136c.051-.038.111-.068.181-.088s.147-.031.231-.031c.114 0 .214.021.299.062s.151.098.198.169a.425.425 0 0 1 .071.238v.009h-.317c0-.045-.01-.085-.029-.119s-.047-.062-.085-.082a.301.301 0 0 0-.132-.03h-.012.001c-.055 0-.102.009-.138.026s-.065.039-.083.067a.165.165 0 0 0-.028.093v.001c0 .026.006.05.019.071s.033.041.06.06.059.036.097.052c.038.016.083.032.133.048.084.026.159.054.223.086s.119.068.162.108c.043.04.076.085.098.135s.033.108.033.172v.017c0 .123-.06.231-.152.298l-.001.001c-.05.037-.109.065-.178.084a.86.86 0 0 1-.464-.003l.006.001a.675.675 0 0 1-.205-.094l.002.001c-.06-.041-.109-.094-.145-.158s-.054-.14-.054-.227h.321c0 .048.007.089.022.122s.036.06.063.081c.028.021.06.035.098.045a.502.502 0 0 0 .266-.01l-.003.001a.169.169 0 0 0 .107-.157v-.002zm1.23-1.145v1.551h-.319v-1.551h.319zm.477 0v.25h-1.266v-.25h1.266zm1.223 1.302v.249h-.826v-.249h.826zm-.721-1.302v1.551h-.32v-1.551h.32zm.614.632v.243h-.718v-.243h.718zm.106-.632v.25h-.825v-.25h.825zm.188 0h.578c.119 0 .221.018.306.053s.152.088.198.158.069.155.069.257c0 .083-.014.154-.043.214s-.067.108-.118.148a.618.618 0 0 1-.174.093l-.004.001-.101.053H31.1l-.002-.249h.374c.056 0 .103-.01.14-.03s.065-.048.083-.083a.258.258 0 0 0 .029-.119v-.005c0-.05-.009-.093-.028-.129s-.047-.064-.084-.083-.085-.029-.142-.029h-.259v1.301h-.32v-1.551zm.867 1.551-.354-.691.338-.002.358.679v.015h-.342zm1.678-.553h-.395V21.3h.395c.061 0 .111-.01.149-.03s.066-.049.084-.085a.322.322 0 0 0-.001-.253l.001.002c-.018-.04-.046-.072-.084-.096s-.088-.036-.149-.036h-.284v1.301h-.32v-1.551h.604c.121 0 .225.022.312.066.161.078.269.24.269.427v.016-.001c0 .1-.023.187-.069.26s-.113.13-.2.169a.73.73 0 0 1-.293.06h-.02.001zm1.843.304v.249h-.826v-.249h.826zm-.721-1.302v1.551h-.32v-1.551h.32zm.613.632v.243h-.718v-.243h.718zm.107-.632v.25h-.825v-.25h.825zm.902 0v1.551h-.319v-1.551h.319zm.478 0v.25h-1.266v-.25h1.266zm1.222 1.302v.249h-.825v-.249h.825zm-.721-1.302v1.551h-.32v-1.551h.32zm.614.632v.243h-.718v-.243h.718zm.106-.632v.25h-.824v-.25h.824zm.188 0h.579c.119 0 .22.018.306.053s.152.088.198.158.069.155.069.257c0 .083-.014.154-.043.214s-.067.108-.118.148a.654.654 0 0 1-.173.093l-.005.001-.101.053h-.503l-.002-.249h.374c.056 0 .103-.01.139-.03s.065-.048.083-.083a.258.258 0 0 0 .029-.119v-.005c0-.05-.009-.093-.028-.129s-.047-.064-.084-.083a.31.31 0 0 0-.131-.029h-.268v1.301h-.32v-1.551zm.867 1.551-.354-.691.338-.002.358.679v.015h-.342zm1.338-.406v-.005a.192.192 0 0 0-.014-.072v.001c-.008-.023-.023-.043-.045-.062s-.053-.038-.093-.056a1.365 1.365 0 0 0-.144-.055l-.01-.003c-.071-.023-.137-.048-.2-.077s-.118-.061-.166-.099c-.048-.038-.085-.083-.113-.133s-.04-.109-.04-.176c0-.065.014-.123.043-.176s.068-.099.119-.136a.573.573 0 0 1 .177-.087l.004-.001a.807.807 0 0 1 .535.033l-.005-.002a.493.493 0 0 1 .197.167l.001.002a.425.425 0 0 1 .071.238v.009h-.317v-.007a.227.227 0 0 0-.03-.113l.001.001c-.018-.035-.047-.062-.085-.082s-.085-.03-.143-.03c-.055 0-.101.009-.139.026s-.064.039-.083.067a.158.158 0 0 0-.028.091v.003c0 .026.006.05.019.071s.033.041.06.06c.026.018.059.036.097.052s.083.032.133.048c.085.026.159.054.223.086s.119.068.162.108.076.085.098.135c.022.05.033.108.033.172v.017c0 .123-.06.231-.152.298l-.001.001c-.049.037-.109.065-.178.084a.86.86 0 0 1-.464-.003l.006.001a.675.675 0 0 1-.205-.094l.002.001c-.06-.041-.109-.094-.145-.158s-.054-.14-.054-.227h.321c0 .048.007.089.022.122s.036.06.063.081c.028.021.06.035.098.045a.495.495 0 0 0 .264-.01l-.004.001a.171.171 0 0 0 .107-.158v-.001z"/>
</svg>
